ISO-10303-21;
HEADER;
/* Generated by software containing ST-Developer
 * from STEP Tools, Inc. (www.steptools.com) 
 */
/* OPTION: using custom renumber hook */

FILE_DESCRIPTION(
/* description */ ('STEP AP242 Edition 2',
'CAx-IF Rec.Pracs.---Representation and Presentation of Product Manufa
cturing Information (PMI)---4.0---2014-10-13',
'CAx-IF Rec.Pracs.---3D Tessellated Geometry---0.4---2014-09-14','2;1',
'CAx-IF Rec.Pracs.---User Defined Attributes---1.5---2016-08-15'),
/* implementation_level */ '2;1');

FILE_NAME(
/* name */ 'Case - Stand',
/* time_stamp */ '2026-07-23T01:52:20Z',
/* author */ (''),
/* organization */ (''),
/* preprocessor_version */ 'ST-DEVELOPER v20',
/* originating_system */ 'ONSHAPE BY PTC INC, 1.218',
/* authorisation */ '  ');

FILE_SCHEMA (('AP242_MANAGED_MODEL_BASED_3D_ENGINEERING_MIM_LF { 1 0 10303 442 3 1 4 }'));
ENDSEC;

DATA;
#10=SHAPE_REPRESENTATION_RELATIONSHIP('','',#918,#11);
#11=ADVANCED_BREP_SHAPE_REPRESENTATION('',(#916),#1670);
#12=TOROIDAL_SURFACE('',#1008,0.004,0.001);
#13=TOROIDAL_SURFACE('',#1010,0.004,0.001);
#14=TOROIDAL_SURFACE('',#1016,0.002,0.001);
#15=TOROIDAL_SURFACE('',#1018,0.002,0.001);
#16=(
BOUNDED_SURFACE()
B_SPLINE_SURFACE(3,2,((#1548,#1549,#1550),(#1551,#1552,#1553),(#1554,#1555,
#1556),(#1557,#1558,#1559),(#1560,#1561,#1562)),.UNSPECIFIED.,.F.,.F.,.F.)
B_SPLINE_SURFACE_WITH_KNOTS((4,1,4),(3,3),(0.,0.785398163397448,1.5707963267949),
(0.,1.),.UNSPECIFIED.)
GEOMETRIC_REPRESENTATION_ITEM()
RATIONAL_B_SPLINE_SURFACE(((1.,0.978147600733806,1.),(1.,0.978147600713663,
1.),(1.,0.929466617358745,1.),(1.,0.791664609508462,1.),(1.,0.707106781186548,
1.)))
REPRESENTATION_ITEM('')
SURFACE()
);
#17=(
BOUNDED_SURFACE()
B_SPLINE_SURFACE(3,2,((#1569,#1570,#1571),(#1572,#1573,#1574),(#1575,#1576,
#1577),(#1578,#1579,#1580),(#1581,#1582,#1583)),.UNSPECIFIED.,.F.,.F.,.F.)
B_SPLINE_SURFACE_WITH_KNOTS((4,1,4),(3,3),(4.71238898038469,5.49778714378214,
6.28318530717959),(0.,1.),.UNSPECIFIED.)
GEOMETRIC_REPRESENTATION_ITEM()
RATIONAL_B_SPLINE_SURFACE(((1.,0.707106781186548,1.),(1.,0.791664609508435,
1.),(1.,0.92946661735876,1.),(1.,0.978147600713663,1.),(1.,0.978147600733806,
1.)))
REPRESENTATION_ITEM('')
SURFACE()
);
#18=(
BOUNDED_SURFACE()
B_SPLINE_SURFACE(3,2,((#1585,#1586,#1587),(#1588,#1589,#1590),(#1591,#1592,
#1593),(#1594,#1595,#1596),(#1597,#1598,#1599),(#1600,#1601,#1602),(#1603,
#1604,#1605),(#1606,#1607,#1608),(#1609,#1610,#1611)),.UNSPECIFIED.,.F.,
 .F.,.F.)
B_SPLINE_SURFACE_WITH_KNOTS((4,1,1,1,1,1,4),(3,3),(1.5707963267949,1.96349540849362,
2.35619449019234,2.55254403104171,2.74889357189107,2.94524311274043,3.14159265358979),
(0.,1.),.UNSPECIFIED.)
GEOMETRIC_REPRESENTATION_ITEM()
RATIONAL_B_SPLINE_SURFACE(((1.,0.707106781186543,1.),(1.,0.664827867023259,
1.),(1.,0.572640714352766,1.),(1.,0.445521512304243,1.),(1.,0.345720186850242,
1.),(1.,0.27680402351532,1.),(1.,0.222740565612338,1.),(1.,0.207911692220391,
1.),(1.,0.20791169081776,1.)))
REPRESENTATION_ITEM('')
SURFACE()
);
#19=(
BOUNDED_SURFACE()
B_SPLINE_SURFACE(3,2,((#1617,#1618,#1619),(#1620,#1621,#1622),(#1623,#1624,
#1625),(#1626,#1627,#1628),(#1629,#1630,#1631),(#1632,#1633,#1634),(#1635,
#1636,#1637),(#1638,#1639,#1640),(#1641,#1642,#1643)),.UNSPECIFIED.,.F.,
 .F.,.F.)
B_SPLINE_SURFACE_WITH_KNOTS((4,1,1,1,1,1,4),(3,3),(3.14159265358979,3.33794219443916,
3.53429173528852,3.73064127613788,3.92699081698724,4.31968989868597,4.71238898038469),
(0.,1.),.UNSPECIFIED.)
GEOMETRIC_REPRESENTATION_ITEM()
RATIONAL_B_SPLINE_SURFACE(((1.,0.20791169081776,1.),(1.,0.207911692219102,
1.),(1.,0.222740565612938,1.),(1.,0.276804023515164,1.),(1.,0.345720186850295,
1.),(1.,0.445521512304224,1.),(1.,0.572640714352778,1.),(1.,0.66482786702328,
1.),(1.,0.70710678118655,1.)))
REPRESENTATION_ITEM('')
SURFACE()
);
#20=B_SPLINE_CURVE_WITH_KNOTS('',3,(#1505,#1506,#1507,#1508,#1509),
 .UNSPECIFIED.,.F.,.F.,(4,1,4),(0.,0.000875613903943324,0.00175122780788665),
 .UNSPECIFIED.);
#21=B_SPLINE_CURVE_WITH_KNOTS('',3,(#1521,#1522,#1523,#1524,#1525),
 .UNSPECIFIED.,.F.,.F.,(4,1,4),(0.,0.00088119586910792,0.00176239173821584),
 .UNSPECIFIED.);
#22=SPHERICAL_SURFACE('',#973,0.0032);
#23=SPHERICAL_SURFACE('',#976,0.0032);
#24=CYLINDRICAL_SURFACE('',#934,0.001);
#25=CYLINDRICAL_SURFACE('',#938,0.001);
#26=CYLINDRICAL_SURFACE('',#942,0.001);
#27=CYLINDRICAL_SURFACE('',#946,0.001);
#28=CYLINDRICAL_SURFACE('',#959,0.005);
#29=CYLINDRICAL_SURFACE('',#962,0.003);
#30=CYLINDRICAL_SURFACE('',#965,0.003);
#31=CYLINDRICAL_SURFACE('',#968,0.005);
#32=CYLINDRICAL_SURFACE('',#970,0.0032);
#33=CYLINDRICAL_SURFACE('',#979,0.0032);
#34=CYLINDRICAL_SURFACE('',#982,0.0032);
#35=CYLINDRICAL_SURFACE('',#984,0.0032);
#36=CYLINDRICAL_SURFACE('',#985,0.0032);
#37=CYLINDRICAL_SURFACE('',#994,0.0004);
#38=CYLINDRICAL_SURFACE('',#996,0.0004);
#39=CYLINDRICAL_SURFACE('',#1000,0.0004);
#40=CYLINDRICAL_SURFACE('',#1002,0.0004);
#41=CYLINDRICAL_SURFACE('',#1005,0.001);
#42=CYLINDRICAL_SURFACE('',#1012,0.001);
#43=CYLINDRICAL_SURFACE('',#1014,0.001);
#44=CYLINDRICAL_SURFACE('',#1020,0.001);
#45=CYLINDRICAL_SURFACE('',#1021,0.001);
#46=CYLINDRICAL_SURFACE('',#1023,0.001);
#47=CYLINDRICAL_SURFACE('',#1024,0.001);
#48=CYLINDRICAL_SURFACE('',#1026,0.001);
#49=ELLIPSE('',#923,0.00786749867383759,0.0032);
#50=ELLIPSE('',#928,0.00786749867383757,0.0032);
#51=ELLIPSE('',#929,0.00350283609121935,0.0032);
#52=ELLIPSE('',#930,0.00350283609121935,0.0032);
#53=ELLIPSE('',#932,0.00141421356237309,0.001);
#54=ELLIPSE('',#933,0.00141421356237309,0.001);
#55=ELLIPSE('',#935,0.00167811955125458,0.001);
#56=ELLIPSE('',#939,0.00167811955125458,0.001);
#57=ELLIPSE('',#943,0.00167811955125458,0.001);
#58=ELLIPSE('',#947,0.00167811955125457,0.001);
#59=ELLIPSE('',#988,0.00147515600134456,0.000600000000000008);
#60=ELLIPSE('',#989,0.00147515600134456,0.0006);
#61=ELLIPSE('',#990,0.00147515600134454,0.0006);
#62=ELLIPSE('',#991,0.00147515600134456,0.0006);
#63=ELLIPSE('',#1022,0.00108239220029239,0.001);
#64=ELLIPSE('',#1025,0.00108239220029239,0.001);
#65=CIRCLE('',#921,0.001);
#66=CIRCLE('',#924,0.002);
#67=CIRCLE('',#925,0.004);
#68=CIRCLE('',#926,0.004);
#69=CIRCLE('',#927,0.002);
#70=CIRCLE('',#936,0.001);
#71=CIRCLE('',#940,0.001);
#72=CIRCLE('',#944,0.001);
#73=CIRCLE('',#948,0.001);
#74=CIRCLE('',#953,0.005);
#75=CIRCLE('',#954,0.003);
#76=CIRCLE('',#955,0.003);
#77=CIRCLE('',#956,0.005);
#78=CIRCLE('',#958,0.001);
#79=CIRCLE('',#960,0.005);
#80=CIRCLE('',#963,0.003);
#81=CIRCLE('',#966,0.003);
#82=CIRCLE('',#969,0.005);
#83=CIRCLE('',#971,0.0032);
#84=CIRCLE('',#972,0.0032);
#85=CIRCLE('',#974,0.0032);
#86=CIRCLE('',#975,0.0032);
#87=CIRCLE('',#977,0.0032);
#88=CIRCLE('',#978,0.0032);
#89=CIRCLE('',#992,0.0004);
#90=CIRCLE('',#993,0.0004);
#91=CIRCLE('',#995,0.0004);
#92=CIRCLE('',#997,0.0004);
#93=CIRCLE('',#998,0.0004);
#94=CIRCLE('',#999,0.0004);
#95=CIRCLE('',#1001,0.0004);
#96=CIRCLE('',#1003,0.0004);
#97=CIRCLE('',#1006,0.001);
#98=CIRCLE('',#1007,0.001);
#99=CIRCLE('',#1009,0.001);
#100=CIRCLE('',#1011,0.001);
#101=CIRCLE('',#1013,0.001);
#102=CIRCLE('',#1015,0.001);
#103=CIRCLE('',#1017,0.001);
#104=CIRCLE('',#1019,0.001);
#105=ORIENTED_EDGE('',*,*,#367,.F.);
#106=ORIENTED_EDGE('',*,*,#368,.T.);
#107=ORIENTED_EDGE('',*,*,#369,.T.);
#108=ORIENTED_EDGE('',*,*,#370,.T.);
#109=ORIENTED_EDGE('',*,*,#371,.T.);
#110=ORIENTED_EDGE('',*,*,#372,.F.);
#111=ORIENTED_EDGE('',*,*,#373,.T.);
#112=ORIENTED_EDGE('',*,*,#374,.T.);
#113=ORIENTED_EDGE('',*,*,#375,.T.);
#114=ORIENTED_EDGE('',*,*,#376,.T.);
#115=ORIENTED_EDGE('',*,*,#377,.T.);
#116=ORIENTED_EDGE('',*,*,#378,.T.);
#117=ORIENTED_EDGE('',*,*,#379,.T.);
#118=ORIENTED_EDGE('',*,*,#380,.T.);
#119=ORIENTED_EDGE('',*,*,#381,.T.);
#120=ORIENTED_EDGE('',*,*,#382,.F.);
#121=ORIENTED_EDGE('',*,*,#383,.T.);
#122=ORIENTED_EDGE('',*,*,#384,.T.);
#123=ORIENTED_EDGE('',*,*,#385,.T.);
#124=ORIENTED_EDGE('',*,*,#386,.T.);
#125=ORIENTED_EDGE('',*,*,#387,.F.);
#126=ORIENTED_EDGE('',*,*,#388,.T.);
#127=ORIENTED_EDGE('',*,*,#389,.T.);
#128=ORIENTED_EDGE('',*,*,#390,.T.);
#129=ORIENTED_EDGE('',*,*,#391,.T.);
#130=ORIENTED_EDGE('',*,*,#392,.F.);
#131=ORIENTED_EDGE('',*,*,#393,.T.);
#132=ORIENTED_EDGE('',*,*,#394,.F.);
#133=ORIENTED_EDGE('',*,*,#395,.T.);
#134=ORIENTED_EDGE('',*,*,#392,.T.);
#135=ORIENTED_EDGE('',*,*,#396,.T.);
#136=ORIENTED_EDGE('',*,*,#397,.F.);
#137=ORIENTED_EDGE('',*,*,#398,.F.);
#138=ORIENTED_EDGE('',*,*,#399,.T.);
#139=ORIENTED_EDGE('',*,*,#394,.T.);
#140=ORIENTED_EDGE('',*,*,#400,.T.);
#141=ORIENTED_EDGE('',*,*,#401,.F.);
#142=ORIENTED_EDGE('',*,*,#402,.T.);
#143=ORIENTED_EDGE('',*,*,#398,.T.);
#144=ORIENTED_EDGE('',*,*,#403,.F.);
#145=ORIENTED_EDGE('',*,*,#404,.F.);
#146=ORIENTED_EDGE('',*,*,#405,.T.);
#147=ORIENTED_EDGE('',*,*,#401,.T.);
#148=ORIENTED_EDGE('',*,*,#406,.F.);
#149=ORIENTED_EDGE('',*,*,#407,.F.);
#150=ORIENTED_EDGE('',*,*,#408,.T.);
#151=ORIENTED_EDGE('',*,*,#404,.T.);
#152=ORIENTED_EDGE('',*,*,#409,.F.);
#153=ORIENTED_EDGE('',*,*,#410,.F.);
#154=ORIENTED_EDGE('',*,*,#411,.T.);
#155=ORIENTED_EDGE('',*,*,#407,.T.);
#156=ORIENTED_EDGE('',*,*,#412,.F.);
#157=ORIENTED_EDGE('',*,*,#388,.F.);
#158=ORIENTED_EDGE('',*,*,#413,.T.);
#159=ORIENTED_EDGE('',*,*,#410,.T.);
#160=ORIENTED_EDGE('',*,*,#414,.F.);
#161=ORIENTED_EDGE('',*,*,#415,.F.);
#162=ORIENTED_EDGE('',*,*,#416,.T.);
#163=ORIENTED_EDGE('',*,*,#417,.T.);
#164=ORIENTED_EDGE('',*,*,#418,.F.);
#165=ORIENTED_EDGE('',*,*,#419,.T.);
#166=ORIENTED_EDGE('',*,*,#396,.F.);
#167=ORIENTED_EDGE('',*,*,#420,.T.);
#168=ORIENTED_EDGE('',*,*,#421,.T.);
#169=ORIENTED_EDGE('',*,*,#422,.T.);
#170=ORIENTED_EDGE('',*,*,#423,.F.);
#171=ORIENTED_EDGE('',*,*,#370,.F.);
#172=ORIENTED_EDGE('',*,*,#424,.T.);
#173=ORIENTED_EDGE('',*,*,#425,.T.);
#174=ORIENTED_EDGE('',*,*,#415,.T.);
#175=ORIENTED_EDGE('',*,*,#426,.T.);
#176=ORIENTED_EDGE('',*,*,#397,.T.);
#177=ORIENTED_EDGE('',*,*,#423,.T.);
#178=ORIENTED_EDGE('',*,*,#427,.F.);
#179=ORIENTED_EDGE('',*,*,#428,.T.);
#180=ORIENTED_EDGE('',*,*,#429,.T.);
#181=ORIENTED_EDGE('',*,*,#430,.T.);
#182=ORIENTED_EDGE('',*,*,#431,.T.);
#183=ORIENTED_EDGE('',*,*,#432,.T.);
#184=ORIENTED_EDGE('',*,*,#433,.F.);
#185=ORIENTED_EDGE('',*,*,#434,.T.);
#186=ORIENTED_EDGE('',*,*,#371,.F.);
#187=ORIENTED_EDGE('',*,*,#426,.F.);
#188=ORIENTED_EDGE('',*,*,#414,.T.);
#189=ORIENTED_EDGE('',*,*,#412,.T.);
#190=ORIENTED_EDGE('',*,*,#409,.T.);
#191=ORIENTED_EDGE('',*,*,#406,.T.);
#192=ORIENTED_EDGE('',*,*,#403,.T.);
#193=ORIENTED_EDGE('',*,*,#400,.F.);
#194=ORIENTED_EDGE('',*,*,#435,.T.);
#195=ORIENTED_EDGE('',*,*,#436,.T.);
#196=ORIENTED_EDGE('',*,*,#437,.T.);
#197=ORIENTED_EDGE('',*,*,#427,.T.);
#198=ORIENTED_EDGE('',*,*,#422,.F.);
#199=ORIENTED_EDGE('',*,*,#437,.F.);
#200=ORIENTED_EDGE('',*,*,#438,.T.);
#201=ORIENTED_EDGE('',*,*,#439,.T.);
#202=ORIENTED_EDGE('',*,*,#428,.F.);
#203=ORIENTED_EDGE('',*,*,#439,.F.);
#204=ORIENTED_EDGE('',*,*,#440,.T.);
#205=ORIENTED_EDGE('',*,*,#441,.T.);
#206=ORIENTED_EDGE('',*,*,#429,.F.);
#207=ORIENTED_EDGE('',*,*,#441,.F.);
#208=ORIENTED_EDGE('',*,*,#442,.T.);
#209=ORIENTED_EDGE('',*,*,#443,.T.);
#210=ORIENTED_EDGE('',*,*,#430,.F.);
#211=ORIENTED_EDGE('',*,*,#443,.F.);
#212=ORIENTED_EDGE('',*,*,#444,.T.);
#213=ORIENTED_EDGE('',*,*,#445,.T.);
#214=ORIENTED_EDGE('',*,*,#431,.F.);
#215=ORIENTED_EDGE('',*,*,#445,.F.);
#216=ORIENTED_EDGE('',*,*,#446,.T.);
#217=ORIENTED_EDGE('',*,*,#447,.T.);
#218=ORIENTED_EDGE('',*,*,#432,.F.);
#219=ORIENTED_EDGE('',*,*,#447,.F.);
#220=ORIENTED_EDGE('',*,*,#448,.T.);
#221=ORIENTED_EDGE('',*,*,#449,.T.);
#222=ORIENTED_EDGE('',*,*,#433,.T.);
#223=ORIENTED_EDGE('',*,*,#449,.F.);
#224=ORIENTED_EDGE('',*,*,#450,.T.);
#225=ORIENTED_EDGE('',*,*,#367,.T.);
#226=ORIENTED_EDGE('',*,*,#434,.F.);
#227=ORIENTED_EDGE('',*,*,#451,.T.);
#228=ORIENTED_EDGE('',*,*,#452,.T.);
#229=ORIENTED_EDGE('',*,*,#453,.F.);
#230=ORIENTED_EDGE('',*,*,#454,.T.);
#231=ORIENTED_EDGE('',*,*,#455,.T.);
#232=ORIENTED_EDGE('',*,*,#453,.T.);
#233=ORIENTED_EDGE('',*,*,#456,.F.);
#234=ORIENTED_EDGE('',*,*,#457,.T.);
#235=ORIENTED_EDGE('',*,*,#458,.T.);
#236=ORIENTED_EDGE('',*,*,#451,.F.);
#237=ORIENTED_EDGE('',*,*,#459,.T.);
#238=ORIENTED_EDGE('',*,*,#460,.T.);
#239=ORIENTED_EDGE('',*,*,#372,.T.);
#240=ORIENTED_EDGE('',*,*,#461,.F.);
#241=ORIENTED_EDGE('',*,*,#457,.F.);
#242=ORIENTED_EDGE('',*,*,#387,.T.);
#243=ORIENTED_EDGE('',*,*,#462,.F.);
#244=ORIENTED_EDGE('',*,*,#461,.T.);
#245=ORIENTED_EDGE('',*,*,#463,.F.);
#246=ORIENTED_EDGE('',*,*,#452,.F.);
#247=ORIENTED_EDGE('',*,*,#464,.F.);
#248=ORIENTED_EDGE('',*,*,#385,.F.);
#249=ORIENTED_EDGE('',*,*,#464,.T.);
#250=ORIENTED_EDGE('',*,*,#458,.F.);
#251=ORIENTED_EDGE('',*,*,#462,.T.);
#252=ORIENTED_EDGE('',*,*,#386,.F.);
#253=ORIENTED_EDGE('',*,*,#465,.F.);
#254=ORIENTED_EDGE('',*,*,#466,.F.);
#255=ORIENTED_EDGE('',*,*,#383,.F.);
#256=ORIENTED_EDGE('',*,*,#382,.T.);
#257=ORIENTED_EDGE('',*,*,#467,.T.);
#258=ORIENTED_EDGE('',*,*,#468,.F.);
#259=ORIENTED_EDGE('',*,*,#455,.F.);
#260=ORIENTED_EDGE('',*,*,#465,.T.);
#261=ORIENTED_EDGE('',*,*,#466,.T.);
#262=ORIENTED_EDGE('',*,*,#456,.T.);
#263=ORIENTED_EDGE('',*,*,#463,.T.);
#264=ORIENTED_EDGE('',*,*,#384,.F.);
#265=ORIENTED_EDGE('',*,*,#469,.T.);
#266=ORIENTED_EDGE('',*,*,#459,.F.);
#267=ORIENTED_EDGE('',*,*,#454,.F.);
#268=ORIENTED_EDGE('',*,*,#468,.T.);
#269=ORIENTED_EDGE('',*,*,#470,.T.);
#270=ORIENTED_EDGE('',*,*,#471,.T.);
#271=ORIENTED_EDGE('',*,*,#472,.T.);
#272=ORIENTED_EDGE('',*,*,#473,.T.);
#273=ORIENTED_EDGE('',*,*,#474,.T.);
#274=ORIENTED_EDGE('',*,*,#475,.T.);
#275=ORIENTED_EDGE('',*,*,#476,.T.);
#276=ORIENTED_EDGE('',*,*,#477,.T.);
#277=ORIENTED_EDGE('',*,*,#478,.F.);
#278=ORIENTED_EDGE('',*,*,#413,.F.);
#279=ORIENTED_EDGE('',*,*,#479,.F.);
#280=ORIENTED_EDGE('',*,*,#475,.F.);
#281=ORIENTED_EDGE('',*,*,#479,.T.);
#282=ORIENTED_EDGE('',*,*,#393,.F.);
#283=ORIENTED_EDGE('',*,*,#480,.F.);
#284=ORIENTED_EDGE('',*,*,#476,.F.);
#285=ORIENTED_EDGE('',*,*,#478,.T.);
#286=ORIENTED_EDGE('',*,*,#474,.F.);
#287=ORIENTED_EDGE('',*,*,#481,.F.);
#288=ORIENTED_EDGE('',*,*,#411,.F.);
#289=ORIENTED_EDGE('',*,*,#480,.T.);
#290=ORIENTED_EDGE('',*,*,#395,.F.);
#291=ORIENTED_EDGE('',*,*,#482,.F.);
#292=ORIENTED_EDGE('',*,*,#477,.F.);
#293=ORIENTED_EDGE('',*,*,#481,.T.);
#294=ORIENTED_EDGE('',*,*,#473,.F.);
#295=ORIENTED_EDGE('',*,*,#483,.F.);
#296=ORIENTED_EDGE('',*,*,#408,.F.);
#297=ORIENTED_EDGE('',*,*,#482,.T.);
#298=ORIENTED_EDGE('',*,*,#399,.F.);
#299=ORIENTED_EDGE('',*,*,#484,.F.);
#300=ORIENTED_EDGE('',*,*,#470,.F.);
#301=ORIENTED_EDGE('',*,*,#483,.T.);
#302=ORIENTED_EDGE('',*,*,#472,.F.);
#303=ORIENTED_EDGE('',*,*,#485,.F.);
#304=ORIENTED_EDGE('',*,*,#405,.F.);
#305=ORIENTED_EDGE('',*,*,#484,.T.);
#306=ORIENTED_EDGE('',*,*,#402,.F.);
#307=ORIENTED_EDGE('',*,*,#485,.T.);
#308=ORIENTED_EDGE('',*,*,#471,.F.);
#309=ORIENTED_EDGE('',*,*,#390,.F.);
#310=ORIENTED_EDGE('',*,*,#486,.T.);
#311=ORIENTED_EDGE('',*,*,#416,.F.);
#312=ORIENTED_EDGE('',*,*,#487,.T.);
#313=ORIENTED_EDGE('',*,*,#418,.T.);
#314=ORIENTED_EDGE('',*,*,#368,.F.);
#315=ORIENTED_EDGE('',*,*,#488,.F.);
#316=ORIENTED_EDGE('',*,*,#377,.F.);
#317=ORIENTED_EDGE('',*,*,#489,.F.);
#318=ORIENTED_EDGE('',*,*,#436,.F.);
#319=ORIENTED_EDGE('',*,*,#488,.T.);
#320=ORIENTED_EDGE('',*,*,#450,.F.);
#321=ORIENTED_EDGE('',*,*,#490,.F.);
#322=ORIENTED_EDGE('',*,*,#378,.F.);
#323=ORIENTED_EDGE('',*,*,#489,.T.);
#324=ORIENTED_EDGE('',*,*,#376,.F.);
#325=ORIENTED_EDGE('',*,*,#491,.F.);
#326=ORIENTED_EDGE('',*,*,#438,.F.);
#327=ORIENTED_EDGE('',*,*,#490,.T.);
#328=ORIENTED_EDGE('',*,*,#448,.F.);
#329=ORIENTED_EDGE('',*,*,#492,.F.);
#330=ORIENTED_EDGE('',*,*,#379,.F.);
#331=ORIENTED_EDGE('',*,*,#491,.T.);
#332=ORIENTED_EDGE('',*,*,#375,.F.);
#333=ORIENTED_EDGE('',*,*,#493,.F.);
#334=ORIENTED_EDGE('',*,*,#440,.F.);
#335=ORIENTED_EDGE('',*,*,#492,.T.);
#336=ORIENTED_EDGE('',*,*,#446,.F.);
#337=ORIENTED_EDGE('',*,*,#494,.F.);
#338=ORIENTED_EDGE('',*,*,#380,.F.);
#339=ORIENTED_EDGE('',*,*,#493,.T.);
#340=ORIENTED_EDGE('',*,*,#374,.F.);
#341=ORIENTED_EDGE('',*,*,#495,.F.);
#342=ORIENTED_EDGE('',*,*,#442,.F.);
#343=ORIENTED_EDGE('',*,*,#494,.T.);
#344=ORIENTED_EDGE('',*,*,#444,.F.);
#345=ORIENTED_EDGE('',*,*,#495,.T.);
#346=ORIENTED_EDGE('',*,*,#373,.F.);
#347=ORIENTED_EDGE('',*,*,#460,.F.);
#348=ORIENTED_EDGE('',*,*,#469,.F.);
#349=ORIENTED_EDGE('',*,*,#467,.F.);
#350=ORIENTED_EDGE('',*,*,#381,.F.);
#351=ORIENTED_EDGE('',*,*,#389,.F.);
#352=ORIENTED_EDGE('',*,*,#425,.F.);
#353=ORIENTED_EDGE('',*,*,#496,.F.);
#354=ORIENTED_EDGE('',*,*,#486,.F.);
#355=ORIENTED_EDGE('',*,*,#496,.T.);
#356=ORIENTED_EDGE('',*,*,#424,.F.);
#357=ORIENTED_EDGE('',*,*,#369,.F.);
#358=ORIENTED_EDGE('',*,*,#417,.F.);
#359=ORIENTED_EDGE('',*,*,#435,.F.);
#360=ORIENTED_EDGE('',*,*,#421,.F.);
#361=ORIENTED_EDGE('',*,*,#497,.F.);
#362=ORIENTED_EDGE('',*,*,#419,.F.);
#363=ORIENTED_EDGE('',*,*,#391,.F.);
#364=ORIENTED_EDGE('',*,*,#487,.F.);
#365=ORIENTED_EDGE('',*,*,#497,.T.);
#366=ORIENTED_EDGE('',*,*,#420,.F.);
#367=EDGE_CURVE('',#498,#499,#576,.T.);
#368=EDGE_CURVE('',#498,#500,#577,.F.);
#369=EDGE_CURVE('',#500,#501,#65,.T.);
#370=EDGE_CURVE('',#501,#502,#578,.T.);
#371=EDGE_CURVE('',#502,#499,#579,.T.);
#372=EDGE_CURVE('',#503,#504,#49,.F.);
#373=EDGE_CURVE('',#503,#505,#580,.F.);
#374=EDGE_CURVE('',#505,#506,#66,.F.);
#375=EDGE_CURVE('',#506,#507,#581,.F.);
#376=EDGE_CURVE('',#507,#508,#67,.F.);
#377=EDGE_CURVE('',#508,#509,#582,.T.);
#378=EDGE_CURVE('',#509,#510,#68,.F.);
#379=EDGE_CURVE('',#510,#511,#583,.T.);
#380=EDGE_CURVE('',#511,#512,#69,.F.);
#381=EDGE_CURVE('',#512,#513,#584,.F.);
#382=EDGE_CURVE('',#514,#513,#50,.F.);
#383=EDGE_CURVE('',#514,#515,#585,.T.);
#384=EDGE_CURVE('',#515,#516,#51,.T.);
#385=EDGE_CURVE('',#516,#517,#586,.T.);
#386=EDGE_CURVE('',#517,#518,#52,.T.);
#387=EDGE_CURVE('',#504,#518,#587,.T.);
#388=EDGE_CURVE('',#519,#520,#588,.T.);
#389=EDGE_CURVE('',#520,#521,#53,.T.);
#390=EDGE_CURVE('',#521,#522,#589,.T.);
#391=EDGE_CURVE('',#522,#523,#54,.T.);
#392=EDGE_CURVE('',#524,#523,#590,.T.);
#393=EDGE_CURVE('',#524,#519,#591,.T.);
#394=EDGE_CURVE('',#525,#526,#592,.T.);
#395=EDGE_CURVE('',#525,#524,#55,.F.);
#396=EDGE_CURVE('',#523,#527,#593,.T.);
#397=EDGE_CURVE('',#526,#527,#70,.T.);
#398=EDGE_CURVE('',#528,#529,#594,.T.);
#399=EDGE_CURVE('',#528,#525,#595,.T.);
#400=EDGE_CURVE('',#526,#529,#596,.T.);
#401=EDGE_CURVE('',#530,#531,#597,.T.);
#402=EDGE_CURVE('',#530,#528,#56,.F.);
#403=EDGE_CURVE('',#531,#529,#71,.T.);
#404=EDGE_CURVE('',#532,#533,#598,.T.);
#405=EDGE_CURVE('',#532,#530,#599,.F.);
#406=EDGE_CURVE('',#533,#531,#600,.T.);
#407=EDGE_CURVE('',#534,#535,#601,.T.);
#408=EDGE_CURVE('',#534,#532,#57,.F.);
#409=EDGE_CURVE('',#535,#533,#72,.T.);
#410=EDGE_CURVE('',#536,#537,#602,.T.);
#411=EDGE_CURVE('',#536,#534,#603,.F.);
#412=EDGE_CURVE('',#537,#535,#604,.T.);
#413=EDGE_CURVE('',#519,#536,#58,.F.);
#414=EDGE_CURVE('',#538,#537,#73,.T.);
#415=EDGE_CURVE('',#520,#538,#605,.T.);
#416=EDGE_CURVE('',#539,#540,#606,.T.);
#417=EDGE_CURVE('',#540,#500,#607,.T.);
#418=EDGE_CURVE('',#541,#500,#608,.T.);
#419=EDGE_CURVE('',#541,#539,#609,.F.);
#420=EDGE_CURVE('',#523,#542,#610,.F.);
#421=EDGE_CURVE('',#542,#543,#611,.T.);
#422=EDGE_CURVE('',#543,#544,#612,.T.);
#423=EDGE_CURVE('',#527,#544,#613,.T.);
#424=EDGE_CURVE('',#501,#545,#614,.F.);
#425=EDGE_CURVE('',#545,#520,#615,.F.);
#426=EDGE_CURVE('',#538,#502,#616,.T.);
#427=EDGE_CURVE('',#546,#544,#617,.T.);
#428=EDGE_CURVE('',#546,#547,#74,.T.);
#429=EDGE_CURVE('',#547,#548,#618,.T.);
#430=EDGE_CURVE('',#548,#549,#75,.T.);
#431=EDGE_CURVE('',#549,#550,#619,.T.);
#432=EDGE_CURVE('',#550,#551,#76,.T.);
#433=EDGE_CURVE('',#552,#551,#620,.T.);
#434=EDGE_CURVE('',#552,#499,#77,.T.);
#435=EDGE_CURVE('',#543,#541,#78,.T.);
#436=EDGE_CURVE('',#541,#553,#621,.F.);
#437=EDGE_CURVE('',#553,#546,#622,.T.);
#438=EDGE_CURVE('',#553,#554,#79,.T.);
#439=EDGE_CURVE('',#554,#547,#623,.T.);
#440=EDGE_CURVE('',#554,#555,#624,.T.);
#441=EDGE_CURVE('',#555,#548,#625,.T.);
#442=EDGE_CURVE('',#555,#556,#80,.T.);
#443=EDGE_CURVE('',#556,#549,#626,.T.);
#444=EDGE_CURVE('',#556,#557,#627,.T.);
#445=EDGE_CURVE('',#557,#550,#628,.T.);
#446=EDGE_CURVE('',#557,#558,#81,.T.);
#447=EDGE_CURVE('',#558,#551,#629,.T.);
#448=EDGE_CURVE('',#558,#559,#630,.F.);
#449=EDGE_CURVE('',#559,#552,#631,.T.);
#450=EDGE_CURVE('',#559,#498,#82,.T.);
#451=EDGE_CURVE('',#560,#561,#83,.T.);
#452=EDGE_CURVE('',#561,#562,#632,.T.);
#453=EDGE_CURVE('',#563,#562,#84,.T.);
#454=EDGE_CURVE('',#563,#560,#633,.T.);
#455=EDGE_CURVE('',#564,#563,#85,.T.);
#456=EDGE_CURVE('',#564,#562,#86,.T.);
#457=EDGE_CURVE('',#560,#565,#87,.T.);
#458=EDGE_CURVE('',#565,#561,#88,.T.);
#459=EDGE_CURVE('',#560,#566,#634,.T.);
#460=EDGE_CURVE('',#566,#503,#20,.T.);
#461=EDGE_CURVE('',#565,#504,#635,.T.);
#462=EDGE_CURVE('',#565,#518,#636,.F.);
#463=EDGE_CURVE('',#562,#516,#637,.T.);
#464=EDGE_CURVE('',#517,#561,#638,.F.);
#465=EDGE_CURVE('',#564,#514,#639,.T.);
#466=EDGE_CURVE('',#515,#564,#640,.T.);
#467=EDGE_CURVE('',#513,#567,#21,.T.);
#468=EDGE_CURVE('',#563,#567,#641,.T.);
#469=EDGE_CURVE('',#567,#566,#642,.T.);
#470=EDGE_CURVE('',#568,#569,#643,.F.);
#471=EDGE_CURVE('',#569,#570,#59,.F.);
#472=EDGE_CURVE('',#570,#571,#644,.T.);
#473=EDGE_CURVE('',#571,#572,#60,.F.);
#474=EDGE_CURVE('',#572,#573,#645,.T.);
#475=EDGE_CURVE('',#573,#574,#61,.F.);
#476=EDGE_CURVE('',#574,#575,#646,.F.);
#477=EDGE_CURVE('',#575,#568,#62,.F.);
#478=EDGE_CURVE('',#536,#573,#89,.T.);
#479=EDGE_CURVE('',#574,#519,#90,.T.);
#480=EDGE_CURVE('',#575,#524,#91,.T.);
#481=EDGE_CURVE('',#534,#572,#92,.T.);
#482=EDGE_CURVE('',#568,#525,#93,.T.);
#483=EDGE_CURVE('',#532,#571,#94,.T.);
#484=EDGE_CURVE('',#569,#528,#95,.T.);
#485=EDGE_CURVE('',#530,#570,#96,.T.);
#486=EDGE_CURVE('',#521,#540,#647,.F.);
#487=EDGE_CURVE('',#539,#522,#648,.F.);
#488=EDGE_CURVE('',#509,#498,#97,.T.);
#489=EDGE_CURVE('',#553,#508,#98,.T.);
#490=EDGE_CURVE('',#510,#559,#99,.T.);
#491=EDGE_CURVE('',#554,#507,#100,.T.);
#492=EDGE_CURVE('',#511,#558,#101,.T.);
#493=EDGE_CURVE('',#555,#506,#102,.T.);
#494=EDGE_CURVE('',#512,#557,#103,.T.);
#495=EDGE_CURVE('',#556,#505,#104,.T.);
#496=EDGE_CURVE('',#540,#545,#63,.T.);
#497=EDGE_CURVE('',#539,#542,#64,.F.);
#498=VERTEX_POINT('',#1319);
#499=VERTEX_POINT('',#1320);
#500=VERTEX_POINT('',#1322);
#501=VERTEX_POINT('',#1324);
#502=VERTEX_POINT('',#1326);
#503=VERTEX_POINT('',#1330);
#504=VERTEX_POINT('',#1331);
#505=VERTEX_POINT('',#1333);
#506=VERTEX_POINT('',#1335);
#507=VERTEX_POINT('',#1337);
#508=VERTEX_POINT('',#1339);
#509=VERTEX_POINT('',#1341);
#510=VERTEX_POINT('',#1343);
#511=VERTEX_POINT('',#1345);
#512=VERTEX_POINT('',#1347);
#513=VERTEX_POINT('',#1349);
#514=VERTEX_POINT('',#1351);
#515=VERTEX_POINT('',#1353);
#516=VERTEX_POINT('',#1355);
#517=VERTEX_POINT('',#1357);
#518=VERTEX_POINT('',#1359);
#519=VERTEX_POINT('',#1363);
#520=VERTEX_POINT('',#1364);
#521=VERTEX_POINT('',#1366);
#522=VERTEX_POINT('',#1368);
#523=VERTEX_POINT('',#1370);
#524=VERTEX_POINT('',#1372);
#525=VERTEX_POINT('',#1376);
#526=VERTEX_POINT('',#1377);
#527=VERTEX_POINT('',#1380);
#528=VERTEX_POINT('',#1384);
#529=VERTEX_POINT('',#1385);
#530=VERTEX_POINT('',#1390);
#531=VERTEX_POINT('',#1391);
#532=VERTEX_POINT('',#1396);
#533=VERTEX_POINT('',#1397);
#534=VERTEX_POINT('',#1402);
#535=VERTEX_POINT('',#1403);
#536=VERTEX_POINT('',#1408);
#537=VERTEX_POINT('',#1409);
#538=VERTEX_POINT('',#1415);
#539=VERTEX_POINT('',#1419);
#540=VERTEX_POINT('',#1420);
#541=VERTEX_POINT('',#1423);
#542=VERTEX_POINT('',#1427);
#543=VERTEX_POINT('',#1429);
#544=VERTEX_POINT('',#1431);
#545=VERTEX_POINT('',#1435);
#546=VERTEX_POINT('',#1440);
#547=VERTEX_POINT('',#1442);
#548=VERTEX_POINT('',#1444);
#549=VERTEX_POINT('',#1446);
#550=VERTEX_POINT('',#1448);
#551=VERTEX_POINT('',#1450);
#552=VERTEX_POINT('',#1452);
#553=VERTEX_POINT('',#1457);
#554=VERTEX_POINT('',#1461);
#555=VERTEX_POINT('',#1465);
#556=VERTEX_POINT('',#1469);
#557=VERTEX_POINT('',#1473);
#558=VERTEX_POINT('',#1477);
#559=VERTEX_POINT('',#1481);
#560=VERTEX_POINT('',#1487);
#561=VERTEX_POINT('',#1488);
#562=VERTEX_POINT('',#1490);
#563=VERTEX_POINT('',#1492);
#564=VERTEX_POINT('',#1496);
#565=VERTEX_POINT('',#1500);
#566=VERTEX_POINT('',#1504);
#567=VERTEX_POINT('',#1526);
#568=VERTEX_POINT('',#1533);
#569=VERTEX_POINT('',#1534);
#570=VERTEX_POINT('',#1536);
#571=VERTEX_POINT('',#1538);
#572=VERTEX_POINT('',#1540);
#573=VERTEX_POINT('',#1542);
#574=VERTEX_POINT('',#1544);
#575=VERTEX_POINT('',#1546);
#576=LINE('',#1318,#649);
#577=LINE('',#1321,#650);
#578=LINE('',#1325,#651);
#579=LINE('',#1327,#652);
#580=LINE('',#1332,#653);
#581=LINE('',#1336,#654);
#582=LINE('',#1340,#655);
#583=LINE('',#1344,#656);
#584=LINE('',#1348,#657);
#585=LINE('',#1352,#658);
#586=LINE('',#1356,#659);
#587=LINE('',#1360,#660);
#588=LINE('',#1362,#661);
#589=LINE('',#1367,#662);
#590=LINE('',#1371,#663);
#591=LINE('',#1373,#664);
#592=LINE('',#1375,#665);
#593=LINE('',#1379,#666);
#594=LINE('',#1383,#667);
#595=LINE('',#1386,#668);
#596=LINE('',#1387,#669);
#597=LINE('',#1389,#670);
#598=LINE('',#1395,#671);
#599=LINE('',#1398,#672);
#600=LINE('',#1399,#673);
#601=LINE('',#1401,#674);
#602=LINE('',#1407,#675);
#603=LINE('',#1410,#676);
#604=LINE('',#1411,#677);
#605=LINE('',#1416,#678);
#606=LINE('',#1418,#679);
#607=LINE('',#1421,#680);
#608=LINE('',#1422,#681);
#609=LINE('',#1424,#682);
#610=LINE('',#1426,#683);
#611=LINE('',#1428,#684);
#612=LINE('',#1430,#685);
#613=LINE('',#1432,#686);
#614=LINE('',#1434,#687);
#615=LINE('',#1436,#688);
#616=LINE('',#1437,#689);
#617=LINE('',#1439,#690);
#618=LINE('',#1443,#691);
#619=LINE('',#1447,#692);
#620=LINE('',#1451,#693);
#621=LINE('',#1456,#694);
#622=LINE('',#1458,#695);
#623=LINE('',#1462,#696);
#624=LINE('',#1464,#697);
#625=LINE('',#1466,#698);
#626=LINE('',#1470,#699);
#627=LINE('',#1472,#700);
#628=LINE('',#1474,#701);
#629=LINE('',#1478,#702);
#630=LINE('',#1480,#703);
#631=LINE('',#1482,#704);
#632=LINE('',#1489,#705);
#633=LINE('',#1493,#706);
#634=LINE('',#1503,#707);
#635=LINE('',#1510,#708);
#636=LINE('',#1512,#709);
#637=LINE('',#1514,#710);
#638=LINE('',#1515,#711);
#639=LINE('',#1518,#712);
#640=LINE('',#1519,#713);
#641=LINE('',#1527,#714);
#642=LINE('',#1530,#715);
#643=LINE('',#1532,#716);
#644=LINE('',#1537,#717);
#645=LINE('',#1541,#718);
#646=LINE('',#1545,#719);
#647=LINE('',#1645,#720);
#648=LINE('',#1646,#721);
#649=VECTOR('',#1031,1.);
#650=VECTOR('',#1032,1.);
#651=VECTOR('',#1035,1.);
#652=VECTOR('',#1036,1.);
#653=VECTOR('',#1041,1.);
#654=VECTOR('',#1044,1.);
#655=VECTOR('',#1047,1.);
#656=VECTOR('',#1050,1.);
#657=VECTOR('',#1053,1.);
#658=VECTOR('',#1056,1.);
#659=VECTOR('',#1059,1.);
#660=VECTOR('',#1062,1.);
#661=VECTOR('',#1065,1.);
#662=VECTOR('',#1068,1.);
#663=VECTOR('',#1071,1.);
#664=VECTOR('',#1072,1.);
#665=VECTOR('',#1075,1.);
#666=VECTOR('',#1078,1.);
#667=VECTOR('',#1083,1.);
#668=VECTOR('',#1084,1.);
#669=VECTOR('',#1085,1.);
#670=VECTOR('',#1088,1.);
#671=VECTOR('',#1095,1.);
#672=VECTOR('',#1096,1.);
#673=VECTOR('',#1097,1.);
#674=VECTOR('',#1100,1.);
#675=VECTOR('',#1107,1.);
#676=VECTOR('',#1108,1.);
#677=VECTOR('',#1109,1.);
#678=VECTOR('',#1116,1.);
#679=VECTOR('',#1119,1.);
#680=VECTOR('',#1120,1.);
#681=VECTOR('',#1121,1.);
#682=VECTOR('',#1122,1.);
#683=VECTOR('',#1125,1.);
#684=VECTOR('',#1126,1.);
#685=VECTOR('',#1127,1.);
#686=VECTOR('',#1128,1.);
#687=VECTOR('',#1131,1.);
#688=VECTOR('',#1132,1.);
#689=VECTOR('',#1133,1.);
#690=VECTOR('',#1136,1.);
#691=VECTOR('',#1139,1.);
#692=VECTOR('',#1142,1.);
#693=VECTOR('',#1145,1.);
#694=VECTOR('',#1152,1.);
#695=VECTOR('',#1153,1.);
#696=VECTOR('',#1158,1.);
#697=VECTOR('',#1161,1.);
#698=VECTOR('',#1162,1.);
#699=VECTOR('',#1167,1.);
#700=VECTOR('',#1170,1.);
#701=VECTOR('',#1171,1.);
#702=VECTOR('',#1176,1.);
#703=VECTOR('',#1179,1.);
#704=VECTOR('',#1180,1.);
#705=VECTOR('',#1189,1.);
#706=VECTOR('',#1192,1.);
#707=VECTOR('',#1207,1.);
#708=VECTOR('',#1208,1.);
#709=VECTOR('',#1211,1.);
#710=VECTOR('',#1214,1.);
#711=VECTOR('',#1215,1.);
#712=VECTOR('',#1220,1.);
#713=VECTOR('',#1221,1.);
#714=VECTOR('',#1224,1.);
#715=VECTOR('',#1229,1.);
#716=VECTOR('',#1232,1.);
#717=VECTOR('',#1235,1.);
#718=VECTOR('',#1238,1.);
#719=VECTOR('',#1241,1.);
#720=VECTOR('',#1270,1.);
#721=VECTOR('',#1271,1.);
#722=EDGE_LOOP('',(#105,#106,#107,#108,#109));
#723=EDGE_LOOP('',(#110,#111,#112,#113,#114,#115,#116,#117,#118,#119,#120,
#121,#122,#123,#124,#125));
#724=EDGE_LOOP('',(#126,#127,#128,#129,#130,#131));
#725=EDGE_LOOP('',(#132,#133,#134,#135,#136));
#726=EDGE_LOOP('',(#137,#138,#139,#140));
#727=EDGE_LOOP('',(#141,#142,#143,#144));
#728=EDGE_LOOP('',(#145,#146,#147,#148));
#729=EDGE_LOOP('',(#149,#150,#151,#152));
#730=EDGE_LOOP('',(#153,#154,#155,#156));
#731=EDGE_LOOP('',(#157,#158,#159,#160,#161));
#732=EDGE_LOOP('',(#162,#163,#164,#165));
#733=EDGE_LOOP('',(#166,#167,#168,#169,#170));
#734=EDGE_LOOP('',(#171,#172,#173,#174,#175));
#735=EDGE_LOOP('',(#176,#177,#178,#179,#180,#181,#182,#183,#184,#185,#186,
#187,#188,#189,#190,#191,#192,#193));
#736=EDGE_LOOP('',(#194,#195,#196,#197,#198));
#737=EDGE_LOOP('',(#199,#200,#201,#202));
#738=EDGE_LOOP('',(#203,#204,#205,#206));
#739=EDGE_LOOP('',(#207,#208,#209,#210));
#740=EDGE_LOOP('',(#211,#212,#213,#214));
#741=EDGE_LOOP('',(#215,#216,#217,#218));
#742=EDGE_LOOP('',(#219,#220,#221,#222));
#743=EDGE_LOOP('',(#223,#224,#225,#226));
#744=EDGE_LOOP('',(#227,#228,#229,#230));
#745=EDGE_LOOP('',(#231,#232,#233));
#746=EDGE_LOOP('',(#234,#235,#236));
#747=EDGE_LOOP('',(#237,#238,#239,#240,#241));
#748=EDGE_LOOP('',(#242,#243,#244));
#749=EDGE_LOOP('',(#245,#246,#247,#248));
#750=EDGE_LOOP('',(#249,#250,#251,#252));
#751=EDGE_LOOP('',(#253,#254,#255));
#752=EDGE_LOOP('',(#256,#257,#258,#259,#260));
#753=EDGE_LOOP('',(#261,#262,#263,#264));
#754=EDGE_LOOP('',(#265,#266,#267,#268));
#755=EDGE_LOOP('',(#269,#270,#271,#272,#273,#274,#275,#276));
#756=EDGE_LOOP('',(#277,#278,#279,#280));
#757=EDGE_LOOP('',(#281,#282,#283,#284));
#758=EDGE_LOOP('',(#285,#286,#287,#288));
#759=EDGE_LOOP('',(#289,#290,#291,#292));
#760=EDGE_LOOP('',(#293,#294,#295,#296));
#761=EDGE_LOOP('',(#297,#298,#299,#300));
#762=EDGE_LOOP('',(#301,#302,#303,#304));
#763=EDGE_LOOP('',(#305,#306,#307,#308));
#764=EDGE_LOOP('',(#309,#310,#311,#312));
#765=EDGE_LOOP('',(#313,#314,#315,#316,#317,#318));
#766=EDGE_LOOP('',(#319,#320,#321,#322));
#767=EDGE_LOOP('',(#323,#324,#325,#326));
#768=EDGE_LOOP('',(#327,#328,#329,#330));
#769=EDGE_LOOP('',(#331,#332,#333,#334));
#770=EDGE_LOOP('',(#335,#336,#337,#338));
#771=EDGE_LOOP('',(#339,#340,#341,#342));
#772=EDGE_LOOP('',(#343,#344,#345,#346,#347,#348,#349,#350));
#773=EDGE_LOOP('',(#351,#352,#353,#354));
#774=EDGE_LOOP('',(#355,#356,#357,#358));
#775=EDGE_LOOP('',(#359,#360,#361,#362));
#776=EDGE_LOOP('',(#363,#364,#365,#366));
#777=FACE_BOUND('',#722,.T.);
#778=FACE_BOUND('',#723,.T.);
#779=FACE_BOUND('',#724,.T.);
#780=FACE_BOUND('',#725,.T.);
#781=FACE_BOUND('',#726,.T.);
#782=FACE_BOUND('',#727,.T.);
#783=FACE_BOUND('',#728,.T.);
#784=FACE_BOUND('',#729,.T.);
#785=FACE_BOUND('',#730,.T.);
#786=FACE_BOUND('',#731,.T.);
#787=FACE_BOUND('',#732,.T.);
#788=FACE_BOUND('',#733,.T.);
#789=FACE_BOUND('',#734,.T.);
#790=FACE_BOUND('',#735,.T.);
#791=FACE_BOUND('',#736,.T.);
#792=FACE_BOUND('',#737,.T.);
#793=FACE_BOUND('',#738,.T.);
#794=FACE_BOUND('',#739,.T.);
#795=FACE_BOUND('',#740,.T.);
#796=FACE_BOUND('',#741,.T.);
#797=FACE_BOUND('',#742,.T.);
#798=FACE_BOUND('',#743,.T.);
#799=FACE_BOUND('',#744,.T.);
#800=FACE_BOUND('',#745,.T.);
#801=FACE_BOUND('',#746,.T.);
#802=FACE_BOUND('',#747,.T.);
#803=FACE_BOUND('',#748,.T.);
#804=FACE_BOUND('',#749,.T.);
#805=FACE_BOUND('',#750,.T.);
#806=FACE_BOUND('',#751,.T.);
#807=FACE_BOUND('',#752,.T.);
#808=FACE_BOUND('',#753,.T.);
#809=FACE_BOUND('',#754,.T.);
#810=FACE_BOUND('',#755,.T.);
#811=FACE_BOUND('',#756,.T.);
#812=FACE_BOUND('',#757,.T.);
#813=FACE_BOUND('',#758,.T.);
#814=FACE_BOUND('',#759,.T.);
#815=FACE_BOUND('',#760,.T.);
#816=FACE_BOUND('',#761,.T.);
#817=FACE_BOUND('',#762,.T.);
#818=FACE_BOUND('',#763,.T.);
#819=FACE_BOUND('',#764,.T.);
#820=FACE_BOUND('',#765,.T.);
#821=FACE_BOUND('',#766,.T.);
#822=FACE_BOUND('',#767,.T.);
#823=FACE_BOUND('',#768,.T.);
#824=FACE_BOUND('',#769,.T.);
#825=FACE_BOUND('',#770,.T.);
#826=FACE_BOUND('',#771,.T.);
#827=FACE_BOUND('',#772,.T.);
#828=FACE_BOUND('',#773,.T.);
#829=FACE_BOUND('',#774,.T.);
#830=FACE_BOUND('',#775,.T.);
#831=FACE_BOUND('',#776,.T.);
#832=PLANE('',#920);
#833=PLANE('',#922);
#834=PLANE('',#931);
#835=PLANE('',#937);
#836=PLANE('',#941);
#837=PLANE('',#945);
#838=PLANE('',#949);
#839=PLANE('',#950);
#840=PLANE('',#951);
#841=PLANE('',#952);
#842=PLANE('',#957);
#843=PLANE('',#961);
#844=PLANE('',#964);
#845=PLANE('',#967);
#846=PLANE('',#980);
#847=PLANE('',#981);
#848=PLANE('',#983);
#849=PLANE('',#986);
#850=PLANE('',#987);
#851=PLANE('',#1004);
#852=ADVANCED_FACE('',(#777),#832,.F.);
#853=ADVANCED_FACE('',(#778),#833,.F.);
#854=ADVANCED_FACE('',(#779),#834,.F.);
#855=ADVANCED_FACE('',(#780),#24,.T.);
#856=ADVANCED_FACE('',(#781),#835,.F.);
#857=ADVANCED_FACE('',(#782),#25,.T.);
#858=ADVANCED_FACE('',(#783),#836,.T.);
#859=ADVANCED_FACE('',(#784),#26,.T.);
#860=ADVANCED_FACE('',(#785),#837,.T.);
#861=ADVANCED_FACE('',(#786),#27,.T.);
#862=ADVANCED_FACE('',(#787),#838,.F.);
#863=ADVANCED_FACE('',(#788),#839,.T.);
#864=ADVANCED_FACE('',(#789),#840,.F.);
#865=ADVANCED_FACE('',(#790),#841,.T.);
#866=ADVANCED_FACE('',(#791),#842,.F.);
#867=ADVANCED_FACE('',(#792),#28,.T.);
#868=ADVANCED_FACE('',(#793),#843,.T.);
#869=ADVANCED_FACE('',(#794),#29,.T.);
#870=ADVANCED_FACE('',(#795),#844,.T.);
#871=ADVANCED_FACE('',(#796),#30,.T.);
#872=ADVANCED_FACE('',(#797),#845,.F.);
#873=ADVANCED_FACE('',(#798),#31,.T.);
#874=ADVANCED_FACE('',(#799),#32,.F.);
#875=ADVANCED_FACE('',(#800),#22,.F.);
#876=ADVANCED_FACE('',(#801),#23,.F.);
#877=ADVANCED_FACE('',(#802),#33,.F.);
#878=ADVANCED_FACE('',(#803),#846,.T.);
#879=ADVANCED_FACE('',(#804),#847,.F.);
#880=ADVANCED_FACE('',(#805),#34,.F.);
#881=ADVANCED_FACE('',(#806),#848,.F.);
#882=ADVANCED_FACE('',(#807),#35,.F.);
#883=ADVANCED_FACE('',(#808),#36,.F.);
#884=ADVANCED_FACE('',(#809),#849,.F.);
#885=ADVANCED_FACE('',(#810),#850,.F.);
#886=ADVANCED_FACE('',(#811),#16,.T.);
#887=ADVANCED_FACE('',(#812),#37,.T.);
#888=ADVANCED_FACE('',(#813),#38,.T.);
#889=ADVANCED_FACE('',(#814),#17,.T.);
#890=ADVANCED_FACE('',(#815),#18,.T.);
#891=ADVANCED_FACE('',(#816),#39,.T.);
#892=ADVANCED_FACE('',(#817),#40,.T.);
#893=ADVANCED_FACE('',(#818),#19,.T.);
#894=ADVANCED_FACE('',(#819),#851,.T.);
#895=ADVANCED_FACE('',(#820),#41,.T.);
#896=ADVANCED_FACE('',(#821),#12,.T.);
#897=ADVANCED_FACE('',(#822),#13,.T.);
#898=ADVANCED_FACE('',(#823),#42,.T.);
#899=ADVANCED_FACE('',(#824),#43,.T.);
#900=ADVANCED_FACE('',(#825),#14,.T.);
#901=ADVANCED_FACE('',(#826),#15,.T.);
#902=ADVANCED_FACE('',(#827),#44,.T.);
#903=ADVANCED_FACE('',(#828),#45,.T.);
#904=ADVANCED_FACE('',(#829),#46,.T.);
#905=ADVANCED_FACE('',(#830),#47,.T.);
#906=ADVANCED_FACE('',(#831),#48,.T.);
#907=CLOSED_SHELL('',(#852,#853,#854,#855,#856,#857,#858,#859,#860,#861,
#862,#863,#864,#865,#866,#867,#868,#869,#870,#871,#872,#873,#874,#875,#876,
#877,#878,#879,#880,#881,#882,#883,#884,#885,#886,#887,#888,#889,#890,#891,
#892,#893,#894,#895,#896,#897,#898,#899,#900,#901,#902,#903,#904,#905,#906));
#908=STYLED_ITEM('',(#909),#916);
#909=PRESENTATION_STYLE_ASSIGNMENT((#910));
#910=SURFACE_STYLE_USAGE(.BOTH.,#911);
#911=SURFACE_SIDE_STYLE('',(#912));
#912=SURFACE_STYLE_FILL_AREA(#913);
#913=FILL_AREA_STYLE('',(#914));
#914=FILL_AREA_STYLE_COLOUR('',#915);
#915=COLOUR_RGB('',0.498039215686275,0.498039215686275,0.498039215686275);
#916=MANIFOLD_SOLID_BREP('Stand',#907);
#917=SHAPE_DEFINITION_REPRESENTATION(#1675,#918);
#918=SHAPE_REPRESENTATION('Stand',(#919),#1670);
#919=AXIS2_PLACEMENT_3D('',#1316,#1027,#1028);
#920=AXIS2_PLACEMENT_3D('',#1317,#1029,#1030);
#921=AXIS2_PLACEMENT_3D('',#1323,#1033,#1034);
#922=AXIS2_PLACEMENT_3D('',#1328,#1037,#1038);
#923=AXIS2_PLACEMENT_3D('',#1329,#1039,#1040);
#924=AXIS2_PLACEMENT_3D('',#1334,#1042,#1043);
#925=AXIS2_PLACEMENT_3D('',#1338,#1045,#1046);
#926=AXIS2_PLACEMENT_3D('',#1342,#1048,#1049);
#927=AXIS2_PLACEMENT_3D('',#1346,#1051,#1052);
#928=AXIS2_PLACEMENT_3D('',#1350,#1054,#1055);
#929=AXIS2_PLACEMENT_3D('',#1354,#1057,#1058);
#930=AXIS2_PLACEMENT_3D('',#1358,#1060,#1061);
#931=AXIS2_PLACEMENT_3D('',#1361,#1063,#1064);
#932=AXIS2_PLACEMENT_3D('',#1365,#1066,#1067);
#933=AXIS2_PLACEMENT_3D('',#1369,#1069,#1070);
#934=AXIS2_PLACEMENT_3D('',#1374,#1073,#1074);
#935=AXIS2_PLACEMENT_3D('',#1378,#1076,#1077);
#936=AXIS2_PLACEMENT_3D('',#1381,#1079,#1080);
#937=AXIS2_PLACEMENT_3D('',#1382,#1081,#1082);
#938=AXIS2_PLACEMENT_3D('',#1388,#1086,#1087);
#939=AXIS2_PLACEMENT_3D('',#1392,#1089,#1090);
#940=AXIS2_PLACEMENT_3D('',#1393,#1091,#1092);
#941=AXIS2_PLACEMENT_3D('',#1394,#1093,#1094);
#942=AXIS2_PLACEMENT_3D('',#1400,#1098,#1099);
#943=AXIS2_PLACEMENT_3D('',#1404,#1101,#1102);
#944=AXIS2_PLACEMENT_3D('',#1405,#1103,#1104);
#945=AXIS2_PLACEMENT_3D('',#1406,#1105,#1106);
#946=AXIS2_PLACEMENT_3D('',#1412,#1110,#1111);
#947=AXIS2_PLACEMENT_3D('',#1413,#1112,#1113);
#948=AXIS2_PLACEMENT_3D('',#1414,#1114,#1115);
#949=AXIS2_PLACEMENT_3D('',#1417,#1117,#1118);
#950=AXIS2_PLACEMENT_3D('',#1425,#1123,#1124);
#951=AXIS2_PLACEMENT_3D('',#1433,#1129,#1130);
#952=AXIS2_PLACEMENT_3D('',#1438,#1134,#1135);
#953=AXIS2_PLACEMENT_3D('',#1441,#1137,#1138);
#954=AXIS2_PLACEMENT_3D('',#1445,#1140,#1141);
#955=AXIS2_PLACEMENT_3D('',#1449,#1143,#1144);
#956=AXIS2_PLACEMENT_3D('',#1453,#1146,#1147);
#957=AXIS2_PLACEMENT_3D('',#1454,#1148,#1149);
#958=AXIS2_PLACEMENT_3D('',#1455,#1150,#1151);
#959=AXIS2_PLACEMENT_3D('',#1459,#1154,#1155);
#960=AXIS2_PLACEMENT_3D('',#1460,#1156,#1157);
#961=AXIS2_PLACEMENT_3D('',#1463,#1159,#1160);
#962=AXIS2_PLACEMENT_3D('',#1467,#1163,#1164);
#963=AXIS2_PLACEMENT_3D('',#1468,#1165,#1166);
#964=AXIS2_PLACEMENT_3D('',#1471,#1168,#1169);
#965=AXIS2_PLACEMENT_3D('',#1475,#1172,#1173);
#966=AXIS2_PLACEMENT_3D('',#1476,#1174,#1175);
#967=AXIS2_PLACEMENT_3D('',#1479,#1177,#1178);
#968=AXIS2_PLACEMENT_3D('',#1483,#1181,#1182);
#969=AXIS2_PLACEMENT_3D('',#1484,#1183,#1184);
#970=AXIS2_PLACEMENT_3D('',#1485,#1185,#1186);
#971=AXIS2_PLACEMENT_3D('',#1486,#1187,#1188);
#972=AXIS2_PLACEMENT_3D('',#1491,#1190,#1191);
#973=AXIS2_PLACEMENT_3D('',#1494,#1193,#1194);
#974=AXIS2_PLACEMENT_3D('',#1495,#1195,#1196);
#975=AXIS2_PLACEMENT_3D('',#1497,#1197,#1198);
#976=AXIS2_PLACEMENT_3D('',#1498,#1199,#1200);
#977=AXIS2_PLACEMENT_3D('',#1499,#1201,#1202);
#978=AXIS2_PLACEMENT_3D('',#1501,#1203,#1204);
#979=AXIS2_PLACEMENT_3D('',#1502,#1205,#1206);
#980=AXIS2_PLACEMENT_3D('',#1511,#1209,#1210);
#981=AXIS2_PLACEMENT_3D('',#1513,#1212,#1213);
#982=AXIS2_PLACEMENT_3D('',#1516,#1216,#1217);
#983=AXIS2_PLACEMENT_3D('',#1517,#1218,#1219);
#984=AXIS2_PLACEMENT_3D('',#1520,#1222,#1223);
#985=AXIS2_PLACEMENT_3D('',#1528,#1225,#1226);
#986=AXIS2_PLACEMENT_3D('',#1529,#1227,#1228);
#987=AXIS2_PLACEMENT_3D('',#1531,#1230,#1231);
#988=AXIS2_PLACEMENT_3D('',#1535,#1233,#1234);
#989=AXIS2_PLACEMENT_3D('',#1539,#1236,#1237);
#990=AXIS2_PLACEMENT_3D('',#1543,#1239,#1240);
#991=AXIS2_PLACEMENT_3D('',#1547,#1242,#1243);
#992=AXIS2_PLACEMENT_3D('',#1563,#1244,#1245);
#993=AXIS2_PLACEMENT_3D('',#1564,#1246,#1247);
#994=AXIS2_PLACEMENT_3D('',#1565,#1248,#1249);
#995=AXIS2_PLACEMENT_3D('',#1566,#1250,#1251);
#996=AXIS2_PLACEMENT_3D('',#1567,#1252,#1253);
#997=AXIS2_PLACEMENT_3D('',#1568,#1254,#1255);
#998=AXIS2_PLACEMENT_3D('',#1584,#1256,#1257);
#999=AXIS2_PLACEMENT_3D('',#1612,#1258,#1259);
#1000=AXIS2_PLACEMENT_3D('',#1613,#1260,#1261);
#1001=AXIS2_PLACEMENT_3D('',#1614,#1262,#1263);
#1002=AXIS2_PLACEMENT_3D('',#1615,#1264,#1265);
#1003=AXIS2_PLACEMENT_3D('',#1616,#1266,#1267);
#1004=AXIS2_PLACEMENT_3D('',#1644,#1268,#1269);
#1005=AXIS2_PLACEMENT_3D('',#1647,#1272,#1273);
#1006=AXIS2_PLACEMENT_3D('',#1648,#1274,#1275);
#1007=AXIS2_PLACEMENT_3D('',#1649,#1276,#1277);
#1008=AXIS2_PLACEMENT_3D('',#1650,#1278,#1279);
#1009=AXIS2_PLACEMENT_3D('',#1651,#1280,#1281);
#1010=AXIS2_PLACEMENT_3D('',#1652,#1282,#1283);
#1011=AXIS2_PLACEMENT_3D('',#1653,#1284,#1285);
#1012=AXIS2_PLACEMENT_3D('',#1654,#1286,#1287);
#1013=AXIS2_PLACEMENT_3D('',#1655,#1288,#1289);
#1014=AXIS2_PLACEMENT_3D('',#1656,#1290,#1291);
#1015=AXIS2_PLACEMENT_3D('',#1657,#1292,#1293);
#1016=AXIS2_PLACEMENT_3D('',#1658,#1294,#1295);
#1017=AXIS2_PLACEMENT_3D('',#1659,#1296,#1297);
#1018=AXIS2_PLACEMENT_3D('',#1660,#1298,#1299);
#1019=AXIS2_PLACEMENT_3D('',#1661,#1300,#1301);
#1020=AXIS2_PLACEMENT_3D('',#1662,#1302,#1303);
#1021=AXIS2_PLACEMENT_3D('',#1663,#1304,#1305);
#1022=AXIS2_PLACEMENT_3D('',#1664,#1306,#1307);
#1023=AXIS2_PLACEMENT_3D('',#1665,#1308,#1309);
#1024=AXIS2_PLACEMENT_3D('',#1666,#1310,#1311);
#1025=AXIS2_PLACEMENT_3D('',#1667,#1312,#1313);
#1026=AXIS2_PLACEMENT_3D('',#1668,#1314,#1315);
#1027=DIRECTION('',(0.,0.,1.));
#1028=DIRECTION('',(1.,0.,0.));
#1029=DIRECTION('',(0.,0.913545457642601,-0.4067366430758));
#1030=DIRECTION('',(0.,0.4067366430758,0.913545457642601));
#1031=DIRECTION('',(0.,-0.4067366430758,-0.913545457642601));
#1032=DIRECTION('',(1.,0.,0.));
#1033=DIRECTION('',(0.,0.913545457642601,-0.4067366430758));
#1034=DIRECTION('',(0.,0.4067366430758,0.913545457642601));
#1035=DIRECTION('',(0.,-0.4067366430758,-0.913545457642601));
#1036=DIRECTION('',(1.,0.,0.));
#1037=DIRECTION('',(0.,-0.4067366430758,-0.913545457642601));
#1038=DIRECTION('',(1.,0.,0.));
#1039=DIRECTION('',(0.,-0.4067366430758,-0.913545457642601));
#1040=DIRECTION('',(0.,0.913545457642601,-0.4067366430758));
#1041=DIRECTION('',(1.,0.,0.));
#1042=DIRECTION('',(0.,-0.4067366430758,-0.913545457642601));
#1043=DIRECTION('',(0.,0.913545457642601,-0.4067366430758));
#1044=DIRECTION('',(0.,0.913545457642601,-0.4067366430758));
#1045=DIRECTION('',(0.,-0.4067366430758,-0.913545457642601));
#1046=DIRECTION('',(0.,0.913545457642601,-0.4067366430758));
#1047=DIRECTION('',(1.,0.,0.));
#1048=DIRECTION('',(0.,-0.4067366430758,-0.913545457642601));
#1049=DIRECTION('',(0.,0.913545457642601,-0.4067366430758));
#1050=DIRECTION('',(0.,0.913545457642601,-0.4067366430758));
#1051=DIRECTION('',(0.,-0.4067366430758,-0.913545457642601));
#1052=DIRECTION('',(0.,0.913545457642601,-0.4067366430758));
#1053=DIRECTION('',(1.,0.,0.));
#1054=DIRECTION('',(0.,-0.4067366430758,-0.913545457642601));
#1055=DIRECTION('',(0.,0.913545457642601,-0.4067366430758));
#1056=DIRECTION('',(0.,-0.913545457642601,0.4067366430758));
#1057=DIRECTION('',(0.,-0.4067366430758,-0.913545457642601));
#1058=DIRECTION('',(0.,0.913545457642601,-0.4067366430758));
#1059=DIRECTION('',(-1.,0.,0.));
#1060=DIRECTION('',(0.,-0.4067366430758,-0.913545457642601));
#1061=DIRECTION('',(0.,-0.913545457642601,0.4067366430758));
#1062=DIRECTION('',(0.,-0.913545457642601,0.4067366430758));
#1063=DIRECTION('',(0.,-0.913545457642601,0.4067366430758));
#1064=DIRECTION('',(0.,-0.4067366430758,-0.913545457642601));
#1065=DIRECTION('',(0.,-0.4067366430758,-0.913545457642601));
#1066=DIRECTION('',(0.,-0.913545457642601,0.4067366430758));
#1067=DIRECTION('',(3.46944695195362E-17,-0.4067366430758,-0.913545457642601));
#1068=DIRECTION('',(-1.,0.,0.));
#1069=DIRECTION('',(0.,-0.913545457642601,0.4067366430758));
#1070=DIRECTION('',(3.46944695195362E-17,-0.4067366430758,-0.913545457642601));
#1071=DIRECTION('',(0.,-0.4067366430758,-0.913545457642601));
#1072=DIRECTION('',(1.,0.,0.));
#1073=DIRECTION('',(0.,-0.4067366430758,-0.913545457642601));
#1074=DIRECTION('',(0.,0.913545457642601,-0.4067366430758));
#1075=DIRECTION('',(0.,-0.4067366430758,-0.913545457642601));
#1076=DIRECTION('',(0.,0.976003561456873,0.217754559133674));
#1077=DIRECTION('',(0.,0.217754559133674,-0.976003561456873));
#1078=DIRECTION('',(0.,-0.4067366430758,-0.913545457642601));
#1079=DIRECTION('',(0.,-0.4067366430758,-0.913545457642601));
#1080=DIRECTION('',(0.,0.913545457642601,-0.4067366430758));
#1081=DIRECTION('',(1.,0.,0.));
#1082=DIRECTION('',(0.,0.,-1.));
#1083=DIRECTION('',(0.,-0.4067366430758,-0.913545457642601));
#1084=DIRECTION('',(0.,0.,-1.));
#1085=DIRECTION('',(0.,-0.913545457642601,0.4067366430758));
#1086=DIRECTION('',(0.,-0.4067366430758,-0.913545457642601));
#1087=DIRECTION('',(0.,0.913545457642601,-0.4067366430758));
#1088=DIRECTION('',(0.,-0.4067366430758,-0.913545457642601));
#1089=DIRECTION('',(0.,0.976003561456873,0.217754559133673));
#1090=DIRECTION('',(0.,0.217754559133673,-0.976003561456873));
#1091=DIRECTION('',(0.,-0.4067366430758,-0.913545457642601));
#1092=DIRECTION('',(0.,0.913545457642601,-0.4067366430758));
#1093=DIRECTION('',(0.,-0.913545457642601,0.4067366430758));
#1094=DIRECTION('',(0.,-0.4067366430758,-0.913545457642601));
#1095=DIRECTION('',(0.,-0.4067366430758,-0.913545457642601));
#1096=DIRECTION('',(1.,0.,0.));
#1097=DIRECTION('',(-1.,0.,0.));
#1098=DIRECTION('',(0.,-0.4067366430758,-0.913545457642601));
#1099=DIRECTION('',(0.,0.913545457642601,-0.4067366430758));
#1100=DIRECTION('',(0.,-0.4067366430758,-0.913545457642601));
#1101=DIRECTION('',(0.,0.976003561456873,0.217754559133673));
#1102=DIRECTION('',(0.,0.217754559133673,-0.976003561456873));
#1103=DIRECTION('',(0.,-0.4067366430758,-0.913545457642601));
#1104=DIRECTION('',(0.,0.913545457642601,-0.4067366430758));
#1105=DIRECTION('',(1.,0.,0.));
#1106=DIRECTION('',(0.,0.,-1.));
#1107=DIRECTION('',(0.,-0.4067366430758,-0.913545457642601));
#1108=DIRECTION('',(0.,0.,-1.));
#1109=DIRECTION('',(0.,-0.913545457642601,0.4067366430758));
#1110=DIRECTION('',(0.,-0.4067366430758,-0.913545457642601));
#1111=DIRECTION('',(0.,0.913545457642601,-0.4067366430758));
#1112=DIRECTION('',(0.,0.976003561456872,0.217754559133676));
#1113=DIRECTION('',(0.,0.217754559133676,-0.976003561456872));
#1114=DIRECTION('',(0.,-0.4067366430758,-0.913545457642601));
#1115=DIRECTION('',(0.,0.913545457642601,-0.4067366430758));
#1116=DIRECTION('',(0.,-0.4067366430758,-0.913545457642601));
#1117=DIRECTION('',(0.,-0.4067366430758,-0.913545457642601));
#1118=DIRECTION('',(1.,0.,0.));
#1119=DIRECTION('',(1.,0.,0.));
#1120=DIRECTION('',(3.46944695195361E-17,0.913545457642601,-0.4067366430758));
#1121=DIRECTION('',(1.,0.,0.));
#1122=DIRECTION('',(3.46944695195361E-17,0.913545457642601,-0.4067366430758));
#1123=DIRECTION('',(-1.,3.16949750348919E-17,-1.41115120656718E-17));
#1124=DIRECTION('',(-3.16949750348919E-17,-1.,0.));
#1125=DIRECTION('',(-2.4532694666934E-17,-0.358367949545302,0.933580426497201));
#1126=DIRECTION('',(3.46944695195361E-17,0.913545457642601,-0.4067366430758));
#1127=DIRECTION('',(0.,-0.4067366430758,-0.913545457642601));
#1128=DIRECTION('',(3.46944695195361E-17,0.913545457642601,-0.4067366430758));
#1129=DIRECTION('',(-1.,3.16949750348919E-17,-1.41115120656718E-17));
#1130=DIRECTION('',(-3.16949750348919E-17,-1.,0.));
#1131=DIRECTION('',(3.46944695195361E-17,0.913545457642601,-0.4067366430758));
#1132=DIRECTION('',(2.4532694666934E-17,0.358367949545302,-0.933580426497201));
#1133=DIRECTION('',(3.46944695195361E-17,0.913545457642601,-0.4067366430758));
#1134=DIRECTION('',(0.,-0.4067366430758,-0.913545457642601));
#1135=DIRECTION('',(1.,0.,0.));
#1136=DIRECTION('',(1.,0.,0.));
#1137=DIRECTION('',(0.,-0.4067366430758,-0.913545457642601));
#1138=DIRECTION('',(0.,0.913545457642601,-0.4067366430758));
#1139=DIRECTION('',(0.,0.913545457642601,-0.4067366430758));
#1140=DIRECTION('',(0.,-0.4067366430758,-0.913545457642601));
#1141=DIRECTION('',(0.,0.913545457642601,-0.4067366430758));
#1142=DIRECTION('',(1.,0.,0.));
#1143=DIRECTION('',(0.,-0.4067366430758,-0.913545457642601));
#1144=DIRECTION('',(0.,0.913545457642601,-0.4067366430758));
#1145=DIRECTION('',(0.,0.913545457642601,-0.4067366430758));
#1146=DIRECTION('',(0.,-0.4067366430758,-0.913545457642601));
#1147=DIRECTION('',(0.,0.913545457642601,-0.4067366430758));
#1148=DIRECTION('',(0.,0.913545457642601,-0.4067366430758));
#1149=DIRECTION('',(0.,0.4067366430758,0.913545457642601));
#1150=DIRECTION('',(0.,0.913545457642601,-0.4067366430758));
#1151=DIRECTION('',(0.,0.4067366430758,0.913545457642601));
#1152=DIRECTION('',(1.,0.,0.));
#1153=DIRECTION('',(0.,-0.4067366430758,-0.913545457642601));
#1154=DIRECTION('',(0.,-0.4067366430758,-0.913545457642601));
#1155=DIRECTION('',(0.,0.913545457642601,-0.4067366430758));
#1156=DIRECTION('',(0.,-0.4067366430758,-0.913545457642601));
#1157=DIRECTION('',(0.,0.913545457642601,-0.4067366430758));
#1158=DIRECTION('',(0.,-0.4067366430758,-0.913545457642601));
#1159=DIRECTION('',(-1.,0.,0.));
#1160=DIRECTION('',(0.,0.,1.));
#1161=DIRECTION('',(0.,0.913545457642601,-0.4067366430758));
#1162=DIRECTION('',(0.,-0.4067366430758,-0.913545457642601));
#1163=DIRECTION('',(0.,-0.4067366430758,-0.913545457642601));
#1164=DIRECTION('',(0.,0.913545457642601,-0.4067366430758));
#1165=DIRECTION('',(0.,-0.4067366430758,-0.913545457642601));
#1166=DIRECTION('',(0.,0.913545457642601,-0.4067366430758));
#1167=DIRECTION('',(0.,-0.4067366430758,-0.913545457642601));
#1168=DIRECTION('',(0.,0.913545457642601,-0.4067366430758));
#1169=DIRECTION('',(0.,0.4067366430758,0.913545457642601));
#1170=DIRECTION('',(1.,0.,0.));
#1171=DIRECTION('',(0.,-0.4067366430758,-0.913545457642601));
#1172=DIRECTION('',(0.,-0.4067366430758,-0.913545457642601));
#1173=DIRECTION('',(0.,0.913545457642601,-0.4067366430758));
#1174=DIRECTION('',(0.,-0.4067366430758,-0.913545457642601));
#1175=DIRECTION('',(0.,0.913545457642601,-0.4067366430758));
#1176=DIRECTION('',(0.,-0.4067366430758,-0.913545457642601));
#1177=DIRECTION('',(-1.,0.,0.));
#1178=DIRECTION('',(0.,0.,1.));
#1179=DIRECTION('',(0.,0.913545457642601,-0.4067366430758));
#1180=DIRECTION('',(0.,-0.4067366430758,-0.913545457642601));
#1181=DIRECTION('',(0.,-0.4067366430758,-0.913545457642601));
#1182=DIRECTION('',(0.,0.913545457642601,-0.4067366430758));
#1183=DIRECTION('',(0.,-0.4067366430758,-0.913545457642601));
#1184=DIRECTION('',(0.,0.913545457642601,-0.4067366430758));
#1185=DIRECTION('',(-1.,0.,0.));
#1186=DIRECTION('',(0.,0.,1.));
#1187=DIRECTION('',(-1.,0.,6.21724893790088E-15));
#1188=DIRECTION('',(6.21724893790088E-15,0.,1.));
#1189=DIRECTION('',(1.,0.,0.));
#1190=DIRECTION('',(-1.,0.,0.));
#1191=DIRECTION('',(0.,0.,1.));
#1192=DIRECTION('',(-1.,0.,0.));
#1193=DIRECTION('',(0.,-1.,0.));
#1194=DIRECTION('',(0.,0.,-1.));
#1195=DIRECTION('',(0.,1.,0.));
#1196=DIRECTION('',(0.,0.,1.));
#1197=DIRECTION('',(-6.12323399573677E-17,0.,-1.));
#1198=DIRECTION('',(-1.,0.,6.12323399573677E-17));
#1199=DIRECTION('',(0.,-1.,0.));
#1200=DIRECTION('',(0.,0.,-1.));
#1201=DIRECTION('',(0.,1.,0.));
#1202=DIRECTION('',(0.,0.,1.));
#1203=DIRECTION('',(0.,0.,1.));
#1204=DIRECTION('',(1.,0.,0.));
#1205=DIRECTION('',(0.,1.,0.));
#1206=DIRECTION('',(0.,0.,1.));
#1207=DIRECTION('',(0.,1.,0.));
#1208=DIRECTION('',(0.,1.,0.));
#1209=DIRECTION('',(1.,0.,0.));
#1210=DIRECTION('',(0.,0.,-1.));
#1211=DIRECTION('',(0.,0.,-1.));
#1212=DIRECTION('',(0.,-1.,0.));
#1213=DIRECTION('',(1.,0.,0.));
#1214=DIRECTION('',(0.,0.,1.));
#1215=DIRECTION('',(0.,0.,1.));
#1216=DIRECTION('',(0.,0.,1.));
#1217=DIRECTION('',(1.,0.,0.));
#1218=DIRECTION('',(1.,0.,0.));
#1219=DIRECTION('',(0.,0.,-1.));
#1220=DIRECTION('',(0.,1.,0.));
#1221=DIRECTION('',(0.,0.,-1.));
#1222=DIRECTION('',(0.,1.,0.));
#1223=DIRECTION('',(0.,0.,1.));
#1224=DIRECTION('',(0.,1.,0.));
#1225=DIRECTION('',(0.,0.,-1.));
#1226=DIRECTION('',(-1.,0.,0.));
#1227=DIRECTION('',(0.,0.,-1.));
#1228=DIRECTION('',(-1.,0.,0.));
#1229=DIRECTION('',(-1.,0.,0.));
#1230=DIRECTION('',(0.,-1.,0.));
#1231=DIRECTION('',(1.,0.,0.));
#1232=DIRECTION('',(0.,0.,-1.));
#1233=DIRECTION('',(0.,-1.,0.));
#1234=DIRECTION('',(0.,0.,-1.));
#1235=DIRECTION('',(1.,0.,0.));
#1236=DIRECTION('',(0.,-1.,0.));
#1237=DIRECTION('',(0.,0.,-1.));
#1238=DIRECTION('',(0.,0.,-1.));
#1239=DIRECTION('',(0.,-1.,0.));
#1240=DIRECTION('',(0.,0.,-1.));
#1241=DIRECTION('',(1.,0.,0.));
#1242=DIRECTION('',(0.,-1.,0.));
#1243=DIRECTION('',(0.,0.,-1.));
#1244=DIRECTION('',(4.33680868994203E-15,0.,1.));
#1245=DIRECTION('',(1.,0.,-4.33680868994203E-15));
#1246=DIRECTION('',(-1.,0.,0.));
#1247=DIRECTION('',(0.,0.,1.));
#1248=DIRECTION('',(1.,0.,0.));
#1249=DIRECTION('',(0.,0.,-1.));
#1250=DIRECTION('',(-1.,0.,1.06624489427519E-14));
#1251=DIRECTION('',(1.06624489427519E-14,0.,1.));
#1252=DIRECTION('',(0.,0.,1.));
#1253=DIRECTION('',(1.,0.,0.));
#1254=DIRECTION('',(0.,0.,1.));
#1255=DIRECTION('',(1.,0.,0.));
#1256=DIRECTION('',(0.,0.,1.));
#1257=DIRECTION('',(1.,0.,0.));
#1258=DIRECTION('',(-1.,0.,2.66561223568797E-14));
#1259=DIRECTION('',(2.66561223568797E-14,0.,1.));
#1260=DIRECTION('',(0.,0.,-1.));
#1261=DIRECTION('',(-1.,0.,0.));
#1262=DIRECTION('',(0.,0.,1.));
#1263=DIRECTION('',(1.,0.,0.));
#1264=DIRECTION('',(-1.,0.,0.));
#1265=DIRECTION('',(0.,0.,1.));
#1266=DIRECTION('',(-1.,1.08420217248551E-14,2.43515794974929E-14));
#1267=DIRECTION('',(2.43515794974929E-14,0.,1.));
#1268=DIRECTION('',(0.,0.933580426497201,0.358367949545302));
#1269=DIRECTION('',(-1.,0.,0.));
#1270=DIRECTION('',(-2.4532694666934E-17,-0.358367949545302,0.933580426497201));
#1271=DIRECTION('',(2.4532694666934E-17,0.358367949545302,-0.933580426497201));
#1272=DIRECTION('',(1.,0.,0.));
#1273=DIRECTION('',(0.,0.,-1.));
#1274=DIRECTION('',(1.,0.,0.));
#1275=DIRECTION('',(0.,0.,-1.));
#1276=DIRECTION('',(-1.,0.,0.));
#1277=DIRECTION('',(0.,0.,1.));
#1278=DIRECTION('',(0.,-0.4067366430758,-0.913545457642601));
#1279=DIRECTION('',(0.,0.913545457642601,-0.4067366430758));
#1280=DIRECTION('',(0.,0.9135454576426,-0.406736643075801));
#1281=DIRECTION('',(0.,0.406736643075801,0.913545457642601));
#1282=DIRECTION('',(0.,-0.4067366430758,-0.913545457642601));
#1283=DIRECTION('',(0.,0.913545457642601,-0.4067366430758));
#1284=DIRECTION('',(0.,0.9135454576426,-0.406736643075802));
#1285=DIRECTION('',(0.,0.406736643075802,0.9135454576426));
#1286=DIRECTION('',(0.,0.913545457642601,-0.4067366430758));
#1287=DIRECTION('',(0.,0.4067366430758,0.913545457642601));
#1288=DIRECTION('',(-3.96187187936148E-16,0.913545457642601,-0.406736643075801));
#1289=DIRECTION('',(0.,0.406736643075801,0.913545457642601));
#1290=DIRECTION('',(0.,-0.913545457642601,0.4067366430758));
#1291=DIRECTION('',(0.,-0.4067366430758,-0.913545457642601));
#1292=DIRECTION('',(0.,0.913545457642601,-0.4067366430758));
#1293=DIRECTION('',(0.,0.4067366430758,0.913545457642601));
#1294=DIRECTION('',(0.,-0.4067366430758,-0.913545457642601));
#1295=DIRECTION('',(0.,0.913545457642601,-0.4067366430758));
#1296=DIRECTION('',(-1.,0.,0.));
#1297=DIRECTION('',(0.,0.,1.));
#1298=DIRECTION('',(0.,-0.4067366430758,-0.913545457642601));
#1299=DIRECTION('',(0.,0.913545457642601,-0.4067366430758));
#1300=DIRECTION('',(1.,0.,0.));
#1301=DIRECTION('',(0.,0.,-1.));
#1302=DIRECTION('',(-1.,0.,0.));
#1303=DIRECTION('',(0.,0.,1.));
#1304=DIRECTION('',(2.4532694666934E-17,0.358367949545302,-0.933580426497201));
#1305=DIRECTION('',(0.,0.933580426497201,0.358367949545302));
#1306=DIRECTION('',(3.20535102804362E-17,0.688354575693755,-0.725374371012287));
#1307=DIRECTION('',(1.3276998679822E-17,0.725374371012287,0.688354575693755));
#1308=DIRECTION('',(3.46944695195361E-17,0.913545457642601,-0.4067366430758));
#1309=DIRECTION('',(0.,0.4067366430758,0.913545457642601));
#1310=DIRECTION('',(-3.46944695195361E-17,-0.913545457642601,0.4067366430758));
#1311=DIRECTION('',(0.,-0.4067366430758,-0.913545457642601));
#1312=DIRECTION('',(3.20535102804362E-17,0.688354575693755,-0.725374371012287));
#1313=DIRECTION('',(-1.3276998679822E-17,-0.725374371012287,-0.688354575693755));
#1314=DIRECTION('',(2.4532694666934E-17,0.358367949545302,-0.933580426497201));
#1315=DIRECTION('',(0.,0.933580426497201,0.358367949545302));
#1316=CARTESIAN_POINT('',(0.,0.,0.));
#1317=CARTESIAN_POINT('',(1.7347234759768E-18,-0.00855238504909739,-0.0547086957006912));
#1318=CARTESIAN_POINT('',(0.0345872999746,-0.00855238504909738,-0.0547086957006912));
#1319=CARTESIAN_POINT('',(0.0345872999746,-0.00895912169217319,-0.0556222411583338));
#1320=CARTESIAN_POINT('',(0.0345872999746,-0.0101793316214006,-0.0583628775312616));
#1321=CARTESIAN_POINT('',(1.7347234759768E-18,-0.00895912169217319,-0.0556222411583338));
#1322=CARTESIAN_POINT('',(0.0065,-0.00895912169217319,-0.0556222411583338));
#1323=CARTESIAN_POINT('',(0.0065,-0.00936585833524899,-0.0565357866159764));
#1324=CARTESIAN_POINT('',(0.0075,-0.00936585833524899,-0.0565357866159764));
#1325=CARTESIAN_POINT('',(0.0075,-0.00895912169217319,-0.0556222411583338));
#1326=CARTESIAN_POINT('',(0.0075,-0.0101793316214006,-0.0583628775312616));
#1327=CARTESIAN_POINT('',(1.7347234759768E-18,-0.0101793316214006,-0.0583628775312616));
#1328=CARTESIAN_POINT('',(0.,-0.0182459967768256,-0.0503928216952633));
#1329=CARTESIAN_POINT('',(-0.0325872999745999,-0.00186233031498998,-0.0576872999746));
#1330=CARTESIAN_POINT('',(-0.0341719677218423,0.0043818248632832,-0.060467376975485));
#1331=CARTESIAN_POINT('',(-0.0357872999746,-0.00186233031498998,-0.0576872999746));
#1332=CARTESIAN_POINT('',(-0.0365872999746,0.00438182486328321,-0.060467376975485));
#1333=CARTESIAN_POINT('',(-0.0365872999746,0.0043818248632832,-0.060467376975485));
#1334=CARTESIAN_POINT('',(-0.0365872999746,0.002554733947998,-0.0596539036893334));
#1335=CARTESIAN_POINT('',(-0.0385872999745999,0.002554733947998,-0.0596539036893334));
#1336=CARTESIAN_POINT('',(-0.0385872999745999,-0.00398465776088438,-0.0567423789160702));
#1337=CARTESIAN_POINT('',(-0.0385872999745999,-0.00398465776088438,-0.0567423789160702));
#1338=CARTESIAN_POINT('',(-0.0345872999746,-0.00398465776088438,-0.0567423789160702));
#1339=CARTESIAN_POINT('',(-0.0345872999746,-0.00763883959145479,-0.055115432343767));
#1340=CARTESIAN_POINT('',(0.,-0.00763883959145479,-0.055115432343767));
#1341=CARTESIAN_POINT('',(0.0345872999746,-0.00763883959145479,-0.055115432343767));
#1342=CARTESIAN_POINT('',(0.0345872999746,-0.00398465776088438,-0.0567423789160702));
#1343=CARTESIAN_POINT('',(0.0385872999745999,-0.00398465776088438,-0.0567423789160702));
#1344=CARTESIAN_POINT('',(0.0385872999745999,-0.0182459967768256,-0.0503928216952633));
#1345=CARTESIAN_POINT('',(0.0385872999745999,0.002554733947998,-0.0596539036893334));
#1346=CARTESIAN_POINT('',(0.0365872999746,0.002554733947998,-0.0596539036893334));
#1347=CARTESIAN_POINT('',(0.0365872999746,0.0043818248632832,-0.060467376975485));
#1348=CARTESIAN_POINT('',(0.0328775047276019,0.00438182486328321,-0.060467376975485));
#1349=CARTESIAN_POINT('',(0.0341719677218422,0.00438182486328321,-0.060467376975485));
#1350=CARTESIAN_POINT('',(0.0325872999745999,-0.00186233031498998,-0.0576872999746));
#1351=CARTESIAN_POINT('',(0.0357872999746,-0.00186233031498997,-0.0576872999746));
#1352=CARTESIAN_POINT('',(0.0357872999746,-0.0182459967768256,-0.0503928216952633));
#1353=CARTESIAN_POINT('',(0.0357872999746,-0.0025,-0.0574033911390818));
#1354=CARTESIAN_POINT('',(0.0325872999745999,-0.0025,-0.0574033911390818));
#1355=CARTESIAN_POINT('',(0.0325872999745999,-0.0057,-0.0559786593460945));
#1356=CARTESIAN_POINT('',(0.,-0.0057,-0.0559786593460945));
#1357=CARTESIAN_POINT('',(-0.0325872999745999,-0.0057,-0.0559786593460945));
#1358=CARTESIAN_POINT('',(-0.0325872999745999,-0.0025,-0.0574033911390818));
#1359=CARTESIAN_POINT('',(-0.0357872999746,-0.0025,-0.0574033911390818));
#1360=CARTESIAN_POINT('',(-0.0357872999746,-0.0182459967768256,-0.0503928216952633));
#1361=CARTESIAN_POINT('',(8.67361737988404E-19,-0.00184500469614343,0.021821160617962));
#1362=CARTESIAN_POINT('',(0.0075,-0.00184500469614343,0.021821160617962));
#1363=CARTESIAN_POINT('',(0.0075,-0.00573458181694296,0.0130850273697098));
#1364=CARTESIAN_POINT('',(0.0075,-0.0307460240378869,-0.0430915916269108));
#1365=CARTESIAN_POINT('',(0.0065,-0.030746024037887,-0.0430915916269108));
#1366=CARTESIAN_POINT('',(0.0065,-0.030170811560935,-0.0417996432508684));
#1367=CARTESIAN_POINT('',(-0.0075,-0.030170811560935,-0.0417996432508684));
#1368=CARTESIAN_POINT('',(-0.0065,-0.030170811560935,-0.0417996432508684));
#1369=CARTESIAN_POINT('',(-0.0065,-0.030746024037887,-0.0430915916269108));
#1370=CARTESIAN_POINT('',(-0.0075,-0.030746024037887,-0.0430915916269108));
#1371=CARTESIAN_POINT('',(-0.0075,-0.00184500469614343,0.021821160617962));
#1372=CARTESIAN_POINT('',(-0.0075,-0.00573458181694296,0.0130850273697098));
#1373=CARTESIAN_POINT('',(8.67361737988404E-19,-0.00573458181694296,0.0130850273697098));
#1374=CARTESIAN_POINT('',(-0.0075,-0.00275855015378604,0.0222278972610378));
#1375=CARTESIAN_POINT('',(-0.0085,-0.00275855015378603,0.0222278972610378));
#1376=CARTESIAN_POINT('',(-0.0085,-0.0061,0.0147228780282847));
#1377=CARTESIAN_POINT('',(-0.0085,-0.0339315135201082,-0.0477877248112908));
#1378=CARTESIAN_POINT('',(-0.0075,-0.0061,0.0147228780282847));
#1379=CARTESIAN_POINT('',(-0.0075,-0.0317977581332382,-0.0454538250814388));
#1380=CARTESIAN_POINT('',(-0.0075,-0.0330179680624656,-0.0481944614543666));
#1381=CARTESIAN_POINT('',(-0.0075,-0.0339315135201083,-0.0477877248112908));
#1382=CARTESIAN_POINT('',(-0.0085,-0.00367209561142863,0.0226346339041136));
#1383=CARTESIAN_POINT('',(-0.0085,-0.00458564106907124,0.0230413705471895));
#1384=CARTESIAN_POINT('',(-0.0085,-0.0061,0.0196400646994331));
#1385=CARTESIAN_POINT('',(-0.0085,-0.0357586044353934,-0.0469742515251392));
#1386=CARTESIAN_POINT('',(-0.0085,-0.0061,0.0226346339041136));
#1387=CARTESIAN_POINT('',(-0.0085,-0.0348450589777508,-0.047380988168215));
#1388=CARTESIAN_POINT('',(-0.0075,-0.00458564106907123,0.0230413705471895));
#1389=CARTESIAN_POINT('',(-0.0075,-0.00549918652671384,0.0234481071902653));
#1390=CARTESIAN_POINT('',(-0.0075,-0.00646541818305704,0.021277915358008));
#1391=CARTESIAN_POINT('',(-0.0075,-0.036672149893036,-0.0465675148820634));
#1392=CARTESIAN_POINT('',(-0.0075,-0.0061,0.0196400646994331));
#1393=CARTESIAN_POINT('',(-0.0075,-0.0357586044353934,-0.0469742515251392));
#1394=CARTESIAN_POINT('',(0.,-0.00549918652671384,0.0234481071902653));
#1395=CARTESIAN_POINT('',(0.0075,-0.00549918652671384,0.0234481071902653));
#1396=CARTESIAN_POINT('',(0.0075,-0.00646541818305704,0.021277915358008));
#1397=CARTESIAN_POINT('',(0.0075,-0.036672149893036,-0.0465675148820634));
#1398=CARTESIAN_POINT('',(-0.0075,-0.00646541818305704,0.021277915358008));
#1399=CARTESIAN_POINT('',(0.,-0.036672149893036,-0.0465675148820634));
#1400=CARTESIAN_POINT('',(0.0075,-0.00458564106907124,0.0230413705471895));
#1401=CARTESIAN_POINT('',(0.0085,-0.00458564106907124,0.0230413705471895));
#1402=CARTESIAN_POINT('',(0.0085,-0.0061,0.0196400646994332));
#1403=CARTESIAN_POINT('',(0.0085,-0.0357586044353934,-0.0469742515251392));
#1404=CARTESIAN_POINT('',(0.0075,-0.0061,0.0196400646994332));
#1405=CARTESIAN_POINT('',(0.0075,-0.0357586044353934,-0.0469742515251392));
#1406=CARTESIAN_POINT('',(0.0085,-0.00367209561142864,0.0226346339041136));
#1407=CARTESIAN_POINT('',(0.0085,-0.00275855015378604,0.0222278972610378));
#1408=CARTESIAN_POINT('',(0.0085,-0.0061,0.0147228780282847));
#1409=CARTESIAN_POINT('',(0.0085,-0.0339315135201083,-0.0477877248112908));
#1410=CARTESIAN_POINT('',(0.0085,-0.0061,0.0205384794089949));
#1411=CARTESIAN_POINT('',(0.0085,-0.0348450589777509,-0.047380988168215));
#1412=CARTESIAN_POINT('',(0.0075,-0.00275855015378604,0.0222278972610378));
#1413=CARTESIAN_POINT('',(0.0075,-0.0061,0.0147228780282847));
#1414=CARTESIAN_POINT('',(0.0075,-0.0339315135201083,-0.0477877248112908));
#1415=CARTESIAN_POINT('',(0.0075,-0.0330179680624656,-0.0481944614543666));
#1416=CARTESIAN_POINT('',(0.0075,-0.0317977581332382,-0.0454538250814388));
#1417=CARTESIAN_POINT('',(0.,-0.0186527334199014,-0.0513063671529059));
#1418=CARTESIAN_POINT('',(0.0075,-0.0281435763026678,-0.0470807716537419));
#1419=CARTESIAN_POINT('',(-0.0065,-0.0281435763026678,-0.0470807716537419));
#1420=CARTESIAN_POINT('',(0.0065,-0.0281435763026678,-0.0470807716537419));
#1421=CARTESIAN_POINT('',(0.0065,-0.0186527334199014,-0.0513063671529059));
#1422=CARTESIAN_POINT('',(1.7347234759768E-18,-0.00895912169217319,-0.0556222411583338));
#1423=CARTESIAN_POINT('',(-0.0065,-0.00895912169217319,-0.0556222411583338));
#1424=CARTESIAN_POINT('',(-0.0065,-0.0281435763026678,-0.0470807716537419));
#1425=CARTESIAN_POINT('',(-0.0075,-0.0203784399127057,-0.0505380331198863));
#1426=CARTESIAN_POINT('',(-0.0075,-0.029077156729165,-0.0474391396032872));
#1427=CARTESIAN_POINT('',(-0.0075,-0.0289287158641436,-0.0478258412775084));
#1428=CARTESIAN_POINT('',(-0.0075,-0.00936585833524898,-0.0565357866159764));
#1429=CARTESIAN_POINT('',(-0.0075,-0.00936585833524899,-0.0565357866159764));
#1430=CARTESIAN_POINT('',(-0.0075,-0.00895912169217319,-0.0556222411583338));
#1431=CARTESIAN_POINT('',(-0.0075,-0.0101793316214006,-0.0583628775312616));
#1432=CARTESIAN_POINT('',(-0.0075,-0.0215986498419331,-0.0532786694928141));
#1433=CARTESIAN_POINT('',(0.0075,-0.0203784399127057,-0.0505380331198863));
#1434=CARTESIAN_POINT('',(0.0075,-0.0207851765557815,-0.0514515785775289));
#1435=CARTESIAN_POINT('',(0.0075,-0.0289287158641435,-0.0478258412775085));
#1436=CARTESIAN_POINT('',(0.0075,-0.0269232192672561,-0.0530503385313405));
#1437=CARTESIAN_POINT('',(0.0075,-0.0215986498419331,-0.0532786694928141));
#1438=CARTESIAN_POINT('',(0.,-0.0198729433491288,-0.0540470035258337));
#1439=CARTESIAN_POINT('',(1.7347234759768E-18,-0.0101793316214006,-0.0583628775312616));
#1440=CARTESIAN_POINT('',(-0.0345872999746,-0.0101793316214006,-0.0583628775312616));
#1441=CARTESIAN_POINT('',(-0.0345872999746,-0.00561160433318759,-0.0603965607466406));
#1442=CARTESIAN_POINT('',(-0.0395872999745999,-0.00561160433318759,-0.0603965607466406));
#1443=CARTESIAN_POINT('',(-0.0395872999745999,-0.0023419084787464,-0.0618523231332722));
#1444=CARTESIAN_POINT('',(-0.0395872999745999,0.000927787375694793,-0.0633080855199038));
#1445=CARTESIAN_POINT('',(-0.0365872999746,0.000927787375694792,-0.0633080855199038));
#1446=CARTESIAN_POINT('',(-0.0365872999746,0.0036684237486226,-0.0645282954491312));
#1447=CARTESIAN_POINT('',(0.,0.0036684237486226,-0.0645282954491312));
#1448=CARTESIAN_POINT('',(0.0365872999746,0.00366842374862259,-0.0645282954491312));
#1449=CARTESIAN_POINT('',(0.0365872999746,0.000927787375694791,-0.0633080855199038));
#1450=CARTESIAN_POINT('',(0.0395872999745999,0.000927787375694793,-0.0633080855199038));
#1451=CARTESIAN_POINT('',(0.0395872999745999,-0.0023419084787464,-0.0618523231332722));
#1452=CARTESIAN_POINT('',(0.0395872999745999,-0.00561160433318759,-0.0603965607466406));
#1453=CARTESIAN_POINT('',(0.0345872999746,-0.00561160433318759,-0.0603965607466406));
#1454=CARTESIAN_POINT('',(1.7347234759768E-18,-0.00855238504909739,-0.0547086957006912));
#1455=CARTESIAN_POINT('',(-0.0065,-0.00936585833524899,-0.0565357866159764));
#1456=CARTESIAN_POINT('',(1.7347234759768E-18,-0.00895912169217319,-0.0556222411583338));
#1457=CARTESIAN_POINT('',(-0.0345872999746,-0.00895912169217319,-0.0556222411583338));
#1458=CARTESIAN_POINT('',(-0.0345872999746,-0.00855238504909739,-0.0547086957006912));
#1459=CARTESIAN_POINT('',(-0.0345872999746,-0.00398465776088438,-0.0567423789160702));
#1460=CARTESIAN_POINT('',(-0.0345872999746,-0.00439139440396018,-0.0576559243737128));
#1461=CARTESIAN_POINT('',(-0.0395872999745999,-0.00439139440396018,-0.0576559243737128));
#1462=CARTESIAN_POINT('',(-0.0395872999745999,-0.00398465776088438,-0.0567423789160702));
#1463=CARTESIAN_POINT('',(-0.0395872999745999,-0.000714961906443194,-0.0581981413027018));
#1464=CARTESIAN_POINT('',(-0.0395872999745999,0.0021479973049222,-0.060567449146976));
#1465=CARTESIAN_POINT('',(-0.0395872999745999,0.0021479973049222,-0.060567449146976));
#1466=CARTESIAN_POINT('',(-0.0395872999745999,0.002554733947998,-0.0596539036893334));
#1467=CARTESIAN_POINT('',(-0.0365872999746,0.002554733947998,-0.0596539036893334));
#1468=CARTESIAN_POINT('',(-0.0365872999746,0.0021479973049222,-0.060567449146976));
#1469=CARTESIAN_POINT('',(-0.0365872999746,0.00488863367785,-0.0617876590762034));
#1470=CARTESIAN_POINT('',(-0.0365872999746,0.0052953703209258,-0.0608741136185608));
#1471=CARTESIAN_POINT('',(0.,0.0052953703209258,-0.0608741136185608));
#1472=CARTESIAN_POINT('',(0.0365872999746,0.00488863367785,-0.0617876590762034));
#1473=CARTESIAN_POINT('',(0.0365872999746,0.00488863367785,-0.0617876590762034));
#1474=CARTESIAN_POINT('',(0.0365872999746,0.0052953703209258,-0.0608741136185608));
#1475=CARTESIAN_POINT('',(0.0365872999746,0.002554733947998,-0.0596539036893334));
#1476=CARTESIAN_POINT('',(0.0365872999746,0.0021479973049222,-0.060567449146976));
#1477=CARTESIAN_POINT('',(0.0395872999745999,0.0021479973049222,-0.060567449146976));
#1478=CARTESIAN_POINT('',(0.0395872999745999,0.002554733947998,-0.0596539036893334));
#1479=CARTESIAN_POINT('',(0.0395872999745999,-0.000714961906443194,-0.0581981413027018));
#1480=CARTESIAN_POINT('',(0.0395872999745999,-0.00112169854951899,-0.0591116867603444));
#1481=CARTESIAN_POINT('',(0.0395872999745999,-0.00439139440396018,-0.0576559243737128));
#1482=CARTESIAN_POINT('',(0.0395872999745999,-0.00398465776088438,-0.0567423789160702));
#1483=CARTESIAN_POINT('',(0.0345872999746,-0.00398465776088438,-0.0567423789160702));
#1484=CARTESIAN_POINT('',(0.0345872999746,-0.00439139440396018,-0.0576559243737128));
#1485=CARTESIAN_POINT('',(0.,-0.0025,-0.0576872999746));
#1486=CARTESIAN_POINT('',(-0.0325872999745999,-0.0025,-0.0576872999746));
#1487=CARTESIAN_POINT('',(-0.0325872999745999,-0.0025,-0.0608872999746));
#1488=CARTESIAN_POINT('',(-0.0325872999745999,-0.0057,-0.0576872999746));
#1489=CARTESIAN_POINT('',(0.,-0.0057,-0.0576872999746));
#1490=CARTESIAN_POINT('',(0.0325872999745999,-0.0057,-0.0576872999746));
#1491=CARTESIAN_POINT('',(0.0325872999745999,-0.0025,-0.0576872999746));
#1492=CARTESIAN_POINT('',(0.0325872999745999,-0.0025,-0.0608872999746));
#1493=CARTESIAN_POINT('',(0.,-0.0025,-0.0608872999746));
#1494=CARTESIAN_POINT('',(0.0325872999745999,-0.0025,-0.0576872999746));
#1495=CARTESIAN_POINT('',(0.0325872999745999,-0.0025,-0.0576872999746));
#1496=CARTESIAN_POINT('',(0.0357872999746,-0.0025,-0.0576872999746));
#1497=CARTESIAN_POINT('',(0.0325872999745999,-0.0025,-0.0576872999746));
#1498=CARTESIAN_POINT('',(-0.0325872999745999,-0.0025,-0.0576872999746));
#1499=CARTESIAN_POINT('',(-0.0325872999745999,-0.0025,-0.0576872999746));
#1500=CARTESIAN_POINT('',(-0.0357872999746,-0.0025,-0.0576872999746));
#1501=CARTESIAN_POINT('',(-0.0325872999745999,-0.0025,-0.0576872999746));
#1502=CARTESIAN_POINT('',(-0.0325872999745999,-0.0055,-0.0576872999746));
#1503=CARTESIAN_POINT('',(-0.0325872999745999,-0.0055,-0.0608872999746));
#1504=CARTESIAN_POINT('',(-0.0325872999745999,0.00484476452115915,-0.0608872999746));
#1505=CARTESIAN_POINT('',(-0.0325872999745999,0.00484476452115915,-0.0608872999746));
#1506=CARTESIAN_POINT('',(-0.0328835218466771,0.00484476452115915,-0.0608872999746));
#1507=CARTESIAN_POINT('',(-0.0334618390502432,0.00480634205961664,-0.0608099406869513));
#1508=CARTESIAN_POINT('',(-0.0339976871971667,0.00460494928878799,-0.0605667183701085));
#1509=CARTESIAN_POINT('',(-0.0341719677218468,0.00438182486329346,-0.0604673769754831));
#1510=CARTESIAN_POINT('',(-0.0357872999746,-0.0055,-0.0576872999746));
#1511=CARTESIAN_POINT('',(-0.0357872999746,-0.0055,0.));
#1512=CARTESIAN_POINT('',(-0.0357872999746,-0.0025,0.));
#1513=CARTESIAN_POINT('',(0.,-0.0057,0.));
#1514=CARTESIAN_POINT('',(0.0325872999745999,-0.0057,0.));
#1515=CARTESIAN_POINT('',(-0.0325872999745999,-0.0057,0.));
#1516=CARTESIAN_POINT('',(-0.0325872999745999,-0.0025,0.));
#1517=CARTESIAN_POINT('',(0.0357872999746,-0.0055,0.));
#1518=CARTESIAN_POINT('',(0.0357872999746,-0.0055,-0.0576872999746));
#1519=CARTESIAN_POINT('',(0.0357872999746,-0.0025,0.));
#1520=CARTESIAN_POINT('',(0.0325872999745999,-0.0055,-0.0576872999746));
#1521=CARTESIAN_POINT('',(0.0341719677218422,0.00438182486328321,-0.060467376975485));
#1522=CARTESIAN_POINT('',(0.0339978635963441,0.00460472345192382,-0.0605666178210626));
#1523=CARTESIAN_POINT('',(0.0334637301311139,0.00480604289249547,-0.0608094592503695));
#1524=CARTESIAN_POINT('',(0.0328833537359338,0.00484476452115915,-0.0608872999746));
#1525=CARTESIAN_POINT('',(0.0325872999746,0.00484476452115915,-0.0608872999746));
#1526=CARTESIAN_POINT('',(0.0325872999745999,0.00484476452115915,-0.0608872999746));
#1527=CARTESIAN_POINT('',(0.0325872999745999,-0.0055,-0.0608872999746));
#1528=CARTESIAN_POINT('',(0.0325872999745999,-0.0025,0.));
#1529=CARTESIAN_POINT('',(0.,-0.0055,-0.0608872999746));
#1530=CARTESIAN_POINT('',(0.0325872999745999,0.00484476452115915,-0.0608872999746));
#1531=CARTESIAN_POINT('',(0.,-0.0057,0.));
#1532=CARTESIAN_POINT('',(-0.0081,-0.0057,0.));
#1533=CARTESIAN_POINT('',(-0.0081,-0.0057,0.0147228780282847));
#1534=CARTESIAN_POINT('',(-0.0081,-0.0057,0.0196400646994331));
#1535=CARTESIAN_POINT('',(-0.0075,-0.0057,0.0196400646994331));
#1536=CARTESIAN_POINT('',(-0.0075,-0.0057,0.0211152207007777));
#1537=CARTESIAN_POINT('',(0.0075,-0.0057,0.0211152207007777));
#1538=CARTESIAN_POINT('',(0.0075,-0.0057,0.0211152207007777));
#1539=CARTESIAN_POINT('',(0.0075,-0.0057,0.0196400646994332));
#1540=CARTESIAN_POINT('',(0.0081,-0.0057,0.0196400646994332));
#1541=CARTESIAN_POINT('',(0.0081,-0.0057,0.0156212927378464));
#1542=CARTESIAN_POINT('',(0.0081,-0.0057,0.0147228780282847));
#1543=CARTESIAN_POINT('',(0.0075,-0.0057,0.0147228780282847));
#1544=CARTESIAN_POINT('',(0.0075,-0.0057,0.0132477220269402));
#1545=CARTESIAN_POINT('',(0.,-0.0057,0.0132477220269401));
#1546=CARTESIAN_POINT('',(-0.0075,-0.0057,0.0132477220269401));
#1547=CARTESIAN_POINT('',(-0.0075,-0.0057,0.0147228780282847));
#1548=CARTESIAN_POINT('',(0.0075,-0.0057,0.0132477220269402));
#1549=CARTESIAN_POINT('',(0.0075,-0.0057,0.0131626994022721));
#1550=CARTESIAN_POINT('',(0.0075,-0.00573458181694296,0.0130850273697098));
#1551=CARTESIAN_POINT('',(0.00765707977812349,-0.0057,0.0132477220273873));
#1552=CARTESIAN_POINT('',(0.0077118054087792,-0.00569999999999947,0.013162699403354));
#1553=CARTESIAN_POINT('',(0.00776179963020589,-0.00573458181677689,0.0130850273700828));
#1554=CARTESIAN_POINT('',(0.00796998824836831,-0.0057,0.0135673679036246));
#1555=CARTESIAN_POINT('',(0.0081626979881617,-0.00570000000000017,0.013534315187045));
#1556=CARTESIAN_POINT('',(0.00828331374727016,-0.00581376287682932,0.0134399269255888));
#1557=CARTESIAN_POINT('',(0.0080999999999876,-0.0057,0.0143366830310672));
#1558=CARTESIAN_POINT('',(0.00841455189341888,-0.00570000000000025,0.0143398885971469));
#1559=CARTESIAN_POINT('',(0.0085,-0.00600433372873047,0.0142940896628819));
#1560=CARTESIAN_POINT('',(0.0081,-0.0057,0.0147228780282847));
#1561=CARTESIAN_POINT('',(0.0085,-0.0057,0.0147228780282847));
#1562=CARTESIAN_POINT('',(0.0085,-0.0061,0.0147228780282847));
#1563=CARTESIAN_POINT('',(0.0081,-0.0061,0.0147228780282847));
#1564=CARTESIAN_POINT('',(0.0075,-0.0061,0.0132477220269402));
#1565=CARTESIAN_POINT('',(8.67361737988404E-19,-0.0061,0.0132477220269401));
#1566=CARTESIAN_POINT('',(-0.0075,-0.0061,0.0132477220269401));
#1567=CARTESIAN_POINT('',(0.0081,-0.0061,0.));
#1568=CARTESIAN_POINT('',(0.0081,-0.0061,0.0196400646994332));
#1569=CARTESIAN_POINT('',(-0.0081,-0.0057,0.0147228780282847));
#1570=CARTESIAN_POINT('',(-0.0085,-0.0057,0.0147228780282847));
#1571=CARTESIAN_POINT('',(-0.0085,-0.0061,0.0147228780282847));
#1572=CARTESIAN_POINT('',(-0.0080999999999876,-0.0057,0.0143366830310673));
#1573=CARTESIAN_POINT('',(-0.00841455189341891,-0.00570000000000025,0.014339888597147));
#1574=CARTESIAN_POINT('',(-0.0085,-0.0060043337287305,0.014294089662882));
#1575=CARTESIAN_POINT('',(-0.00796998824836836,-0.0057,0.0135673679036246));
#1576=CARTESIAN_POINT('',(-0.00816269798816163,-0.00569999999999995,0.0135343151870457));
#1577=CARTESIAN_POINT('',(-0.00828331374727024,-0.00581376287682928,0.0134399269255887));
#1578=CARTESIAN_POINT('',(-0.0076570797781234,-0.0057,0.0132477220273872));
#1579=CARTESIAN_POINT('',(-0.0077118054087793,-0.00569999999999989,0.0131626994033527));
#1580=CARTESIAN_POINT('',(-0.00776179963020571,-0.00573458181677694,0.0130850273700827));
#1581=CARTESIAN_POINT('',(-0.0075,-0.0057,0.0132477220269401));
#1582=CARTESIAN_POINT('',(-0.0075,-0.0057,0.0131626994022721));
#1583=CARTESIAN_POINT('',(-0.0075,-0.00573458181694296,0.0130850273697098));
#1584=CARTESIAN_POINT('',(-0.0081,-0.0061,0.0147228780282847));
#1585=CARTESIAN_POINT('',(0.0081,-0.0057,0.0196400646994332));
#1586=CARTESIAN_POINT('',(0.0085,-0.0057,0.0196400646994332));
#1587=CARTESIAN_POINT('',(0.0085,-0.00610000000000001,0.0196400646994332));
#1588=CARTESIAN_POINT('',(0.0080999999999938,-0.0057,0.0198331621980421));
#1589=CARTESIAN_POINT('',(0.00855087500483763,-0.00570000000000002,0.0198680930308036));
#1590=CARTESIAN_POINT('',(0.0085,-0.00614783313563443,0.0198544588821351));
#1591=CARTESIAN_POINT('',(0.00806876693272796,-0.0057,0.0202192974314453));
#1592=CARTESIAN_POINT('',(0.00863384878845854,-0.00569999999999999,0.0203546709880932));
#1593=CARTESIAN_POINT('',(0.00844794488787501,-0.00624348460251359,0.0202831808923843));
#1594=CARTESIAN_POINT('',(0.00795752953253973,-0.0057,0.0206283916224813));
#1595=CARTESIAN_POINT('',(0.00871610510009537,-0.00570000000000002,0.0209143732515436));
#1596=CARTESIAN_POINT('',(0.00826254922090015,-0.00634482334624903,0.0207373939990646));
#1597=CARTESIAN_POINT('',(0.00783548566101868,-0.0057,0.0208745081271204));
#1598=CARTESIAN_POINT('',(0.00876924452118689,-0.00569999999999996,0.0214420204121687));
#1599=CARTESIAN_POINT('',(0.00805914276836435,-0.00640579008187453,0.0210106546432538));
#1600=CARTESIAN_POINT('',(0.00773109163013638,-0.0057,0.0210117192706188));
#1601=CARTESIAN_POINT('',(0.0087465955653338,-0.00570000000000012,0.0219832797940422));
#1602=CARTESIAN_POINT('',(0.007885152716894,-0.00643977933231492,0.0211629987760403));
#1603=CARTESIAN_POINT('',(0.00761780817495012,-0.0057,0.0210962016084243));
#1604=CARTESIAN_POINT('',(0.00844280663035668,-0.00569999999999944,0.0226971092474408));
#1605=CARTESIAN_POINT('',(0.00769634695825018,-0.00646070686966898,0.0212567986537888));
#1606=CARTESIAN_POINT('',(0.00753926994453086,-0.0057,0.021115220700666));
#1607=CARTESIAN_POINT('',(0.00784209147906072,-0.00570000000000129,0.0229970726940779));
#1608=CARTESIAN_POINT('',(0.00756544990755144,-0.00646541818309861,0.0212779153579147));
#1609=CARTESIAN_POINT('',(0.0075,-0.0057,0.0211152207007778));
#1610=CARTESIAN_POINT('',(0.00749999999999999,-0.0057,0.0229970727445691));
#1611=CARTESIAN_POINT('',(0.0075,-0.00646541818305704,0.0212779153580081));
#1612=CARTESIAN_POINT('',(0.0075,-0.0061,0.0211152207007777));
#1613=CARTESIAN_POINT('',(-0.0081,-0.0061,0.0226346339041136));
#1614=CARTESIAN_POINT('',(-0.0081,-0.0061,0.0196400646994331));
#1615=CARTESIAN_POINT('',(0.,-0.0061,0.0211152207007777));
#1616=CARTESIAN_POINT('',(-0.0075,-0.0061,0.0211152207007777));
#1617=CARTESIAN_POINT('',(-0.0075,-0.0057,0.0211152207007777));
#1618=CARTESIAN_POINT('',(-0.0075,-0.0057,0.0229970727445691));
#1619=CARTESIAN_POINT('',(-0.0075,-0.00646541818305704,0.021277915358008));
#1620=CARTESIAN_POINT('',(-0.00753926994453088,-0.0057,0.0211152207006659));
#1621=CARTESIAN_POINT('',(-0.00784209147906171,-0.00569999999999877,0.0229970726940898));
#1622=CARTESIAN_POINT('',(-0.00756544990755148,-0.00646541818309861,0.0212779153579147));
#1623=CARTESIAN_POINT('',(-0.00761780817495011,-0.0057,0.0210962016084242));
#1624=CARTESIAN_POINT('',(-0.00844280663035467,-0.00570000000000053,0.0226971092474364));
#1625=CARTESIAN_POINT('',(-0.00769634695825016,-0.00646070686966897,0.0212567986537887));
#1626=CARTESIAN_POINT('',(-0.00773109163013639,-0.0057,0.0210117192706187));
#1627=CARTESIAN_POINT('',(-0.00874659556533443,-0.00569999999999989,0.0219832797940427));
#1628=CARTESIAN_POINT('',(-0.00788515271689401,-0.00643977933231492,0.0211629987760403));
#1629=CARTESIAN_POINT('',(-0.00783548566101869,-0.0057,0.0208745081271204));
#1630=CARTESIAN_POINT('',(-0.00876924452118671,-0.00570000000000003,0.0214420204121686));
#1631=CARTESIAN_POINT('',(-0.00805914276836436,-0.00640579008187453,0.0210106546432538));
#1632=CARTESIAN_POINT('',(-0.00795752953253974,-0.0057,0.0206283916224813));
#1633=CARTESIAN_POINT('',(-0.00871610510009545,-0.00569999999999999,0.0209143732515435));
#1634=CARTESIAN_POINT('',(-0.00826254922090017,-0.00634482334624903,0.0207373939990646));
#1635=CARTESIAN_POINT('',(-0.00806876693272796,-0.0057,0.0202192974314454));
#1636=CARTESIAN_POINT('',(-0.00863384878845839,-0.00569999999999999,0.0203546709880935));
#1637=CARTESIAN_POINT('',(-0.00844794488787502,-0.00624348460251359,0.0202831808923844));
#1638=CARTESIAN_POINT('',(-0.00809999999999381,-0.0057,0.0198331621980417));
#1639=CARTESIAN_POINT('',(-0.00855087500483786,-0.00570000000000002,0.0198680930308029));
#1640=CARTESIAN_POINT('',(-0.00850000000000001,-0.00614783313563441,0.0198544588821347));
#1641=CARTESIAN_POINT('',(-0.00810000000000001,-0.0057,0.0196400646994331));
#1642=CARTESIAN_POINT('',(-0.0085,-0.0057,0.0196400646994331));
#1643=CARTESIAN_POINT('',(-0.00850000000000001,-0.0061,0.0196400646994331));
#1644=CARTESIAN_POINT('',(0.,-0.0281435763026678,-0.0470807716537419));
#1645=CARTESIAN_POINT('',(0.0065,-0.0281435763026678,-0.0470807716537419));
#1646=CARTESIAN_POINT('',(-0.0065,-0.030170811560935,-0.0417996432508684));
#1647=CARTESIAN_POINT('',(0.,-0.00804557623453059,-0.0560289778014096));
#1648=CARTESIAN_POINT('',(0.0345872999746,-0.00804557623453059,-0.0560289778014096));
#1649=CARTESIAN_POINT('',(-0.0345872999746,-0.00804557623453059,-0.0560289778014096));
#1650=CARTESIAN_POINT('',(0.0345872999746,-0.00439139440396018,-0.0576559243737128));
#1651=CARTESIAN_POINT('',(0.0385872999745999,-0.00439139440396018,-0.0576559243737128));
#1652=CARTESIAN_POINT('',(-0.0345872999746,-0.00439139440396018,-0.0576559243737128));
#1653=CARTESIAN_POINT('',(-0.0385872999745999,-0.00439139440396018,-0.0576559243737128));
#1654=CARTESIAN_POINT('',(0.0385872999745999,-0.0186527334199014,-0.0513063671529059));
#1655=CARTESIAN_POINT('',(0.0385872999745999,0.0021479973049222,-0.060567449146976));
#1656=CARTESIAN_POINT('',(-0.0385872999745999,-0.00112169854951899,-0.0591116867603444));
#1657=CARTESIAN_POINT('',(-0.0385872999745999,0.0021479973049222,-0.060567449146976));
#1658=CARTESIAN_POINT('',(0.0365872999746,0.0021479973049222,-0.060567449146976));
#1659=CARTESIAN_POINT('',(0.0365872999746,0.0039750882202074,-0.0613809224331276));
#1660=CARTESIAN_POINT('',(-0.0365872999746,0.0021479973049222,-0.060567449146976));
#1661=CARTESIAN_POINT('',(-0.0365872999746,0.0039750882202074,-0.0613809224331276));
#1662=CARTESIAN_POINT('',(0.,0.00397508822020741,-0.0613809224331276));
#1663=CARTESIAN_POINT('',(0.0065,-0.0269232192672561,-0.0530503385313405));
#1664=CARTESIAN_POINT('',(0.0065,-0.0289287158641435,-0.0478258412775084));
#1665=CARTESIAN_POINT('',(0.0065,-0.0190594700629771,-0.0522199126105485));
#1666=CARTESIAN_POINT('',(-0.0065,-0.0207851765557815,-0.0514515785775289));
#1667=CARTESIAN_POINT('',(-0.0065,-0.0289287158641436,-0.0478258412775084));
#1668=CARTESIAN_POINT('',(-0.0065,-0.0269232192672561,-0.0530503385313405));
#1669=MECHANICAL_DESIGN_GEOMETRIC_PRESENTATION_REPRESENTATION('',(#908),
#1670);
#1670=(
GEOMETRIC_REPRESENTATION_CONTEXT(3)
GLOBAL_UNCERTAINTY_ASSIGNED_CONTEXT((#1671))
GLOBAL_UNIT_ASSIGNED_CONTEXT((#1674,#1673,#1672))
REPRESENTATION_CONTEXT('Stand','TOP_LEVEL_ASSEMBLY_PART')
);
#1671=UNCERTAINTY_MEASURE_WITH_UNIT(LENGTH_MEASURE(2.E-5),#1674,
'DISTANCE_ACCURACY_VALUE','Maximum Tolerance applied to model');
#1672=(
NAMED_UNIT(*)
SI_UNIT($,.STERADIAN.)
SOLID_ANGLE_UNIT()
);
#1673=(
NAMED_UNIT(*)
PLANE_ANGLE_UNIT()
SI_UNIT($,.RADIAN.)
);
#1674=(
LENGTH_UNIT()
NAMED_UNIT(*)
SI_UNIT($,.METRE.)
);
#1675=PRODUCT_DEFINITION_SHAPE('','',#1676);
#1676=PRODUCT_DEFINITION('','',#1678,#1677);
#1677=PRODUCT_DEFINITION_CONTEXT('',#1684,'design');
#1678=PRODUCT_DEFINITION_FORMATION_WITH_SPECIFIED_SOURCE('','',#1680,
 .NOT_KNOWN.);
#1679=PRODUCT_RELATED_PRODUCT_CATEGORY('','',(#1680));
#1680=PRODUCT('Stand','Stand','Stand',(#1682));
#1681=PRODUCT_CATEGORY('','');
#1682=PRODUCT_CONTEXT('',#1684,'mechanical');
#1683=APPLICATION_PROTOCOL_DEFINITION('international standard',
'ap242_managed_model_based_3d_engineering',2020,#1684);
#1684=APPLICATION_CONTEXT('managed model based 3d engineering');
ENDSEC;
END-ISO-10303-21;
